<svg width="42" height="42" viewBox="0 0 42 42" fill="none" xmlns="http://www.w3.org/2000/svg">
<g clip-path="url(#clip0_263_19273)">
<rect x="1" y="1" width="40" height="40" rx="20" fill="#26272B"/>
<g clip-path="url(#clip1_263_19273)">
<path d="M31.4067 35.0225C34.139 34.366 36.3254 31.7471 37.5625 27.6301C37.7004 27.1719 38.3067 27.1608 38.4455 27.5509C38.5839 27.9397 39.4998 38.293 28.7973 41.4697C28.0966 41.6779 26.9596 37.253 26.8204 36.3028C26.8039 36.192 29.9748 35.3669 31.4067 35.0225Z" fill="#A977C2"/>
<path d="M38.1301 27.0604C39.0852 27.3687 37.4971 35.8167 34.4276 35.1245C33.1861 34.8443 34.0415 34.1704 35.7226 31.4559C37.191 29.0844 36.8396 26.644 38.1305 27.0604H38.1301Z" fill="#CDA3E0"/>
<path d="M38.0326 27.2701C38.2088 27.2701 38.3792 27.3649 38.445 27.5495C38.5834 27.9383 39.3489 38.0688 28.6464 41.2454C28.6295 41.2503 28.6126 41.253 28.5952 41.253C27.8986 41.253 26.956 37.2289 26.8199 36.3018C26.8034 36.1911 30.0654 35.6613 31.497 35.3169C34.2292 34.6604 36.3249 31.7462 37.562 27.6291C37.6345 27.388 37.8369 27.2706 38.0326 27.2706M38.0326 26.7812C37.598 26.7812 37.2203 27.0655 37.0931 27.4886C36.4788 29.5326 35.6745 31.2092 34.7021 32.4726C33.7176 33.7515 32.6006 34.5487 31.3826 34.8414C30.7603 34.9909 29.7572 35.1817 28.8719 35.3503C28.299 35.4593 27.7576 35.5621 27.3586 35.6461C27.1388 35.6924 26.9764 35.7298 26.8621 35.7609C26.7852 35.7818 26.7273 35.8001 26.6802 35.8192C26.383 35.938 26.3087 36.192 26.335 36.3735C26.4044 36.8463 26.6726 38.0937 27.028 39.2676C27.2251 39.9189 27.4182 40.442 27.601 40.8228C27.807 41.2512 28.1063 41.7432 28.5943 41.7432C28.6588 41.7432 28.7229 41.7338 28.7847 41.7156C30.9774 41.0648 32.8631 40.0764 34.3893 38.7774C35.6736 37.6844 36.7141 36.3637 37.4824 34.8525C38.4388 32.9704 38.7929 31.135 38.9214 29.9268C39.0531 28.6905 38.9953 27.6398 38.9054 27.3867C38.7746 27.0192 38.4317 26.7817 38.0322 26.7817L38.0326 26.7812Z" fill="#18181B"/>
<path d="M11.4633 41.0042L11.5314 42.3219C11.5314 42.3219 15.5297 43.7307 19.6747 43.6622C26.5463 43.5487 28.7723 42.1515 28.7723 42.1515L28.9653 40.5273C28.9653 40.5273 27.8408 42.0834 19.5044 42.1969C15.007 42.2582 11.4629 41.0042 11.4629 41.0042H11.4633Z" fill="#1B2C56"/>
<path d="M7.28369 30.3295C7.28369 30.3295 5.79835 29.5741 6.14666 28.9304C6.57772 28.1337 8.95987 27.4953 9.54261 25.845C9.62803 25.6034 10.2032 25.7569 10.705 26.159C10.8758 26.296 10.7192 26.8601 10.9626 26.9086C11.7953 27.075 12.2499 27.825 12.3834 28.2623C12.4034 28.3285 11.8047 26.5665 12.1979 26.7178C23.0561 30.89 30.7422 24.8988 30.9459 24.9535C32.224 25.296 32.4148 26.2258 32.5358 26.8009C32.78 27.9607 31.6999 27.853 31.8619 29.3677C31.9179 29.8926 31.1083 30.1106 31.4001 30.6324C32.4077 32.4322 34.7925 36.8647 33.6261 37.3411C27.175 39.9759 27.7844 36.4061 27.7844 36.4061C27.7844 36.4061 27.691 37.1174 27.9094 37.5191C28.046 37.7704 28.5793 38.3594 28.5793 38.3594C28.8276 40.6614 29.5233 40.3736 28.7497 40.7633C26.8266 41.7326 22.8115 42.109 22.1927 42.1112C21.6059 42.113 18.4217 42.3839 16.3016 42.0809C13.2273 41.6419 12.3754 41.7629 11.2588 40.7558C9.53327 39.2001 12.1183 33.596 11.8269 33.555C8.82864 33.1347 7.28369 30.3295 7.28369 30.3295Z" fill="#1B2C56"/>
<path d="M11.3604 31.3068C12.2652 29.9087 11.9561 33.5547 11.5762 33.5102C9.82703 33.3055 8.28786 31.8113 7.23002 30.4968C6.72378 29.8678 6.18685 29.7868 6.11523 29.1716C5.99646 28.1516 6.80519 27.954 7.43064 28.422C7.81944 28.713 7.56676 29.6373 8.71402 29.6373C8.79187 29.6373 8.79409 29.7196 8.81989 29.7886C9.61483 31.9012 11.1104 31.693 11.3604 31.3068Z" fill="#14223F"/>
<path d="M29.3615 29.4906C27.9647 29.3656 22.9548 31.2166 21.5927 31.274C20.4143 31.3233 20.3791 30.9964 20.5491 30.9452C22.8205 30.2637 28.6115 28.741 29.5203 28.9003C30.3157 29.0395 33.2152 32.5422 33.7908 35.9649C33.9612 36.9773 33.2614 37.7313 32.4883 37.8426C32.3637 37.8603 33.188 36.9253 32.8935 36.0899C32.0492 33.6953 30.7205 29.6125 29.3615 29.491V29.4906Z" fill="#14223F"/>
<path d="M26.5692 34.117C27.893 33.5423 28.9923 36.646 28.7498 38.0846C28.6782 38.5103 28.5888 38.9747 28.6702 39.315C28.7596 39.6887 29.1528 40.1046 29.1697 40.4054C29.3508 43.5953 25.3717 42.8622 23.207 43.3809C21.5816 43.7706 23.6461 43.082 16.0139 42.4156C15.2096 42.3453 11.3951 41.876 11.3497 40.9619C11.319 40.3444 21.8987 42.3222 26.3872 40.7119C29.3628 39.6442 25.8192 34.4422 26.5692 34.1166V34.117Z" fill="#14223F"/>
<path d="M9.53414 26.0466C9.53414 26.8055 7.32771 28.6057 6.52076 28.6057C5.71381 28.6057 4.88862 25.9104 5.65331 25.7325C5.97182 25.6582 6.36595 26.773 6.48606 26.4442C6.64532 26.0101 5.46381 25.2543 6.13019 24.7707C6.79256 24.2899 7.15378 25.4086 7.53857 25.4976C7.62843 25.5185 6.7245 24.3125 7.25831 24.2218C8.14934 24.0701 9.5337 25.5501 9.5337 26.0466H9.53414Z" fill="#A977C2"/>
<path d="M7.33582 25.3174C7.42523 25.4829 6.91232 24.4615 6.9875 24.3632C7.419 23.7991 9.02845 24.6915 9.39545 25.8472C9.74733 26.9566 8.47551 28.047 7.68057 28.1261C7.03065 28.1911 5.91276 27.5505 5.59069 26.0478C5.51462 25.6928 6.11249 26.0509 6.04487 25.8432C5.48837 24.1283 7.03021 24.7498 7.33582 25.3169V25.3174Z" fill="#CDA3E0"/>
<path d="M30.2151 39.02C30.1257 38.8545 30.0954 39.5374 30.0207 39.6357C29.5892 40.1998 28.8543 39.5605 28.6617 38.3634C28.6087 38.0343 29.9299 38.7949 33.3148 37.5458C33.587 37.4453 33.2845 40.0445 32.0652 40.1882C31.9571 40.2011 31.7787 39.6126 31.7471 39.6428C30.7138 40.6459 30.5207 39.5872 30.2151 39.0196V39.02Z" fill="#A977C2"/>
<path d="M30.1484 39.52C30.059 39.3545 30.0288 40.0373 29.954 40.1356C29.5225 40.6997 28.7877 40.0605 28.595 38.8634C28.5421 38.5342 30.1169 39.2117 32.2183 38.4657C32.4919 38.3687 32.2828 39.7842 32.0479 40.1503C31.9892 40.242 31.7121 40.1121 31.6805 40.1428C30.6471 41.1459 30.4541 40.0872 30.1484 39.5195V39.52Z" fill="#CDA3E0"/>
<path d="M7.42032 13.3401C7.69657 13.2596 7.99017 13.3259 8.21482 13.5229C8.46793 13.7449 8.423 14.1172 8.58404 14.5243C8.67746 14.7592 9.04312 15.7245 10.5458 17.0417C10.8928 17.3455 11.2629 17.64 11.6464 17.9153C11.6637 17.9282 11.6811 17.9416 11.6975 17.9558C11.8755 18.112 11.9546 18.35 11.9048 18.5777C11.8212 18.9581 11.4786 19.059 11.3319 19.1022C11.2211 19.1347 11.1406 19.1645 11.0921 19.1903C11.2353 19.8927 10.9764 20.4341 10.6232 20.6769C10.3056 20.8954 9.91591 20.8874 9.63032 20.6556C9.53868 20.5813 9.44615 20.5034 9.3554 20.4234C8.64009 19.7966 7.97816 19.0275 7.49194 18.2583C7.18856 17.7934 6.96569 17.3486 6.81088 16.8975C6.40118 15.7783 6.40963 14.7267 6.8358 13.8575C6.96836 13.5865 7.18455 13.4002 7.41988 13.341L7.42032 13.3401Z" fill="#18181B"/>
<path d="M11.2805 18.4235C9.3512 17.0352 8.09984 15.3301 7.95794 14.5031C7.85429 13.9008 7.50998 13.758 7.37475 14.2051C6.82759 16.0103 7.39832 17.7069 9.82674 20.0001C10.1902 20.3431 10.1586 20.0695 10.2556 20.0855C10.4179 20.1122 10.5069 19.6215 10.454 19.4654C10.4086 19.3328 10.3935 19.1713 10.4624 18.9947C10.6582 18.4965 11.4019 18.5098 11.2805 18.4231V18.4235Z" fill="#CDA3E0"/>
<path d="M7.58569 13.956C7.16175 15.2354 8.47049 18.0014 10.4305 19.1322C10.684 19.9071 10.2423 20.3471 10.0239 20.1696C8.26986 18.747 6.43754 16.0904 7.39708 14.1317C7.4767 13.9689 7.59726 13.9213 7.58569 13.956Z" fill="#A977C2"/>
<path d="M8.05657 10.0935C8.13753 9.96672 8.22339 9.83994 8.3128 9.71671C8.33327 9.68824 8.3564 9.662 8.38087 9.63753C8.68736 9.24206 8.96673 8.97071 9.15178 8.80923C9.60908 8.41065 9.86532 8.35371 10.037 8.34837C10.235 8.34214 10.4107 8.37684 10.5575 8.45113C10.7732 8.55967 10.9232 8.74695 10.9792 8.97827C11.0553 9.28922 10.9352 9.60372 10.7982 9.79367C10.6367 10.0179 10.1589 11.1932 10.4561 12.4143C10.6896 13.3729 11.3458 14.13 12.4058 14.6643C12.5646 14.7444 12.7346 14.82 12.9107 14.8903C12.9294 14.8978 12.9481 14.9063 12.9663 14.9152C13.1447 15.0055 13.2719 15.1692 13.3151 15.3649C13.3938 15.7257 13.1843 15.9886 12.8938 16.352C12.8084 16.4588 12.7137 16.5776 12.6318 16.6923C12.622 16.7119 12.6109 16.731 12.5989 16.7502C12.4054 17.0495 12.1291 17.5371 12.126 17.542C11.9788 17.8013 11.6718 17.9188 11.3934 17.8303C11.3609 17.8222 11.3284 17.8111 11.2973 17.7969C11.0771 17.7004 10.8627 17.5994 10.6598 17.4975C9.98231 17.1554 9.39378 16.7769 8.91068 16.3712C7.98584 15.6038 7.41288 14.7243 7.20914 13.7577C7.04099 12.9614 7.12507 12.1207 7.45959 11.2585C7.6095 10.8644 7.81057 10.4734 8.05702 10.0948V10.0931L8.05657 10.0935Z" fill="#18181B"/>
<path d="M12.682 15.4705C8.58317 13.8468 9.8016 10.1074 10.2927 9.42683C10.3679 9.32274 10.5245 8.95841 10.0578 8.97309C9.44751 8.99177 4.41363 14.095 11.5498 17.2228C11.5498 17.2228 11.7758 16.8477 12.0521 16.4331C12.3483 15.987 12.8208 15.5252 12.6829 15.4705H12.6824H12.682Z" fill="#CDA3E0"/>
<path d="M8.82074 10.084C8.1935 12.0582 8.16993 15.3865 12.0761 16.4097C11.8697 16.7286 11.5841 17.2335 11.5841 17.2335C6.3861 14.9546 7.58362 11.7944 8.82074 10.084Z" fill="#A977C2"/>
<path d="M10.6169 6.39616C10.6854 6.35702 11.5079 5.96867 12.3825 6.00203C12.5876 6.00959 12.7864 6.08833 12.9305 6.23468C13.0493 6.35568 13.1045 6.48869 13.129 6.59768C13.2246 7.0234 12.9243 7.35125 12.7967 7.49182C11.9955 8.36861 11.6747 9.01897 11.6899 9.73873C11.7063 10.5239 12.1307 11.5364 13.0649 13.0221C13.2037 13.2423 13.1966 13.447 13.1663 13.5795C13.0916 13.9069 12.8607 14.0511 12.4786 14.2891L12.3772 14.3527C12.354 14.3669 12.3336 14.3825 12.3153 14.3972C12.2766 14.4492 12.2588 14.4955 12.2526 14.515C12.2335 14.7197 12.1165 14.8798 11.935 14.9799C11.7735 15.0693 11.5836 15.0631 11.4136 14.9937C11.3896 14.9839 11.3656 14.9732 11.3429 14.9608C10.0555 14.2784 9.1418 13.431 8.62934 12.4421C8.62578 12.4358 8.62177 12.4278 8.61777 12.4189V12.4203C8.59019 12.3651 8.56617 12.3157 8.54393 12.2677C8.53191 12.2419 8.51946 12.2147 8.50789 12.1872C8.4941 12.1551 8.4812 12.1249 8.4683 12.0951C8.45407 12.0608 8.43983 12.0257 8.42604 11.9897C8.41937 11.9732 8.41359 11.9572 8.40825 11.9407L8.4038 11.9287C8.35665 11.7984 8.31572 11.6649 8.28191 11.5324L8.27791 11.5172C8.27301 11.4972 8.26768 11.4763 8.26278 11.4563C8.25656 11.4309 8.25211 11.4073 8.24721 11.3833L8.24543 11.3749C8.23609 11.3322 8.22764 11.2886 8.22008 11.2463C8.22008 11.2459 8.22008 11.2428 8.22008 11.2423C8.21785 11.2303 8.21607 11.2187 8.21385 11.2063C7.86865 9.16755 9.18539 7.21601 10.6178 6.39527L10.6169 6.39616Z" fill="#18181B"/>
<path d="M12.5362 13.356C10.5887 10.2599 10.6274 8.93872 12.3356 7.07037C12.6141 6.7661 12.6043 6.64065 12.1497 6.53522C10.3689 6.12018 5.85109 11.2991 11.6359 14.4094C11.6359 14.4094 11.6234 14.0883 12.0451 13.824C12.4989 13.5398 12.6154 13.4815 12.5362 13.3556V13.356Z" fill="#CDA3E0"/>
<path d="M10.9448 6.83594C9.56043 8.37733 8.71478 11.4321 11.8536 13.9726C11.6681 14.1928 11.6347 14.4085 11.6347 14.4085C6.92205 11.9103 9.11336 7.88622 10.9448 6.83638V6.83594Z" fill="#A977C2"/>
<path d="M19.6491 29.7591C19.6277 29.7591 19.6059 29.7577 19.5846 29.7555C19.2354 29.7186 18.8866 29.4388 18.4449 29.0838C17.9507 28.687 17.391 28.2372 16.79 28.1171C11.5106 27.0611 8.83398 24.1367 8.83398 19.4244C8.83398 13.2126 14.4221 7.76367 20.7932 7.76367C20.8826 7.76367 20.9694 7.76456 21.0588 7.76679C23.0192 7.81394 24.7835 8.13111 26.3026 8.70941C27.7631 9.26547 29.01 10.0666 30.0091 11.0911C31.9006 13.0306 32.9001 15.7847 32.9001 19.0547C32.9001 21.2327 32.2765 23.0895 31.0469 24.5735C29.5616 26.3662 27.2217 27.55 24.0931 28.0918C21.9018 28.4712 20.9525 29.0785 20.3848 29.441C20.0966 29.6252 19.8884 29.7586 19.6491 29.7586V29.7591Z" fill="#A977C2"/>
<path d="M20.7933 8.0538C20.8796 8.0538 20.965 8.05469 21.0518 8.05691C28.9731 8.2482 32.6111 12.8323 32.6111 19.0562C32.6111 22.7644 30.7022 26.6546 24.0438 27.8081C20.7715 28.3748 20.1434 29.4704 19.6492 29.4704C19.6376 29.4704 19.6265 29.47 19.6149 29.4687C19.0068 29.4046 18.033 28.0714 16.8471 27.8343C10.4342 26.5518 9.12322 22.6972 9.12322 19.4249C9.12322 13.2874 14.6727 8.05424 20.7933 8.05335M20.7942 7.47505H20.7929C19.219 7.47505 17.6607 7.79801 16.1616 8.43503C14.7172 9.04847 13.4053 9.91859 12.2616 11.0214C11.1099 12.1317 10.2011 13.4097 9.55962 14.8195C8.88612 16.2995 8.54492 17.8489 8.54492 19.4249C8.54492 21.5237 9.07295 23.3049 10.1148 24.7186C11.4671 26.5545 13.694 27.7934 16.7336 28.401C17.2652 28.5074 17.7959 28.9335 18.2644 29.3099C18.7239 29.6791 19.1211 29.998 19.5544 30.0434C19.5855 30.0465 19.6176 30.0483 19.6492 30.0483C19.973 30.0483 20.2235 29.8882 20.5406 29.6853C21.0896 29.3343 22.0086 28.7471 24.1425 28.3775C27.341 27.8232 29.7392 26.6061 31.2699 24.7586C31.9385 23.9517 32.4403 23.0229 32.761 21.9979C33.0452 21.0891 33.1898 20.0989 33.1898 19.0553C33.1898 17.4169 32.9456 15.8991 32.4643 14.5441C31.9634 13.1353 31.2071 11.9057 30.2165 10.8897C29.188 9.83496 27.9059 9.01066 26.4059 8.43948C24.8561 7.84961 23.0593 7.52577 21.066 7.47772C20.9744 7.4755 20.8858 7.47461 20.7946 7.47461L20.7942 7.47505Z" fill="#18181B"/>
<path d="M31.7833 20.6283C31.6819 20.6283 31.5084 20.5976 31.4136 20.4063C31.3482 20.3573 31.2989 20.2862 31.2713 20.199C31.1908 19.9428 31.3064 19.5161 31.4568 19.3471C31.5231 19.2733 31.556 19.191 31.5587 19.0944C31.564 18.8862 31.3558 18.7159 31.2179 18.6033C31.1129 18.5175 30.9688 18.3996 31.0146 18.2047C31.0413 18.0909 31.132 18.0028 31.2517 17.9756C31.2566 17.9743 31.2615 17.9734 31.2664 17.9725C33.6561 17.4236 35.2985 16.3408 35.657 15.7808C35.8737 15.4422 36.1299 15.2559 36.3781 15.2559C36.5076 15.2559 36.6259 15.3079 36.7109 15.4027C36.7865 15.4867 36.8701 15.6442 36.8412 15.9187C36.621 18.0139 35.2166 19.3978 32.1441 20.5464C31.995 20.602 31.8803 20.6283 31.7829 20.6283H31.7833Z" fill="#A977C2"/>
<path d="M36.3779 15.5451C36.5007 15.5451 36.5776 15.6616 36.5536 15.8885C36.3566 17.7644 35.1715 19.1061 32.0429 20.2756C31.9192 20.3218 31.8378 20.3388 31.7831 20.3388C31.6301 20.3388 31.6848 20.2044 31.6145 20.1875C31.4544 20.1488 31.5633 19.6621 31.6728 19.5389C31.7662 19.4344 31.8427 19.2916 31.8476 19.1021C31.8609 18.5669 31.1705 18.2907 31.316 18.2573C33.6332 17.7284 35.4486 16.6434 35.901 15.9366C36.0696 15.6732 36.2498 15.5451 36.3784 15.5451M36.3784 14.9668C36.0283 14.9668 35.6857 15.2003 35.4139 15.6247C35.2818 15.8311 34.8419 16.2244 34.0362 16.6532C33.4539 16.9633 32.4917 17.3939 31.2088 17.6893C31.2017 17.6906 31.195 17.6919 31.1879 17.6937C30.9601 17.7457 30.7858 17.9161 30.7337 18.1385C30.6465 18.5091 30.9192 18.732 31.0353 18.8272C31.1919 18.9553 31.2711 19.0429 31.2697 19.0878C31.2693 19.111 31.2644 19.1283 31.2417 19.1537C31.0313 19.3899 30.8818 19.9237 30.9948 20.2854C31.0326 20.4059 31.0985 20.51 31.1843 20.5905C31.3649 20.8908 31.6799 20.9171 31.7831 20.9171C31.9157 20.9171 32.0629 20.8855 32.2453 20.817C35.4353 19.6243 36.8957 18.1684 37.1288 15.9486C37.1688 15.5682 37.0403 15.3365 36.9255 15.2092C36.7849 15.0531 36.5905 14.9668 36.3779 14.9668H36.3784Z" fill="#18181B"/>
<path d="M36.563 15.8131C36.6862 17.9911 33.9655 19.7269 31.7964 20.3564C31.526 20.4346 31.2902 19.8581 31.8249 19.2425C34.07 18.9618 36.3508 16.9221 36.4575 15.5783C36.4606 15.5418 36.5532 15.6325 36.5634 15.8136L36.563 15.8131Z" fill="#A977C2"/>
<path d="M30.6573 17.2691C30.4385 17.2691 30.2103 17.2628 29.9785 17.2504C29.8335 17.2428 29.7169 17.1285 29.7058 16.9839C29.7058 16.9795 29.672 16.5475 29.6137 16.0653C29.5919 15.8838 29.5497 15.6836 29.5127 15.507C29.4251 15.0898 29.3811 14.8802 29.5127 14.7179C29.575 14.6414 29.6671 14.5978 29.7659 14.5978C29.7743 14.5978 29.7872 14.5982 29.7957 14.5991C29.7997 14.5991 29.8041 14.6 29.8081 14.6004C30.0016 14.6173 30.1925 14.6262 30.3753 14.6262C31.6667 14.6262 32.6796 14.2059 33.3869 13.3762C34.2819 12.3268 34.3967 10.9812 34.3371 10.6097C34.3318 10.5768 34.2895 10.2779 34.4657 10.071C34.5551 9.96603 34.6823 9.9082 34.8238 9.9082C34.9336 9.9082 35.048 9.94157 35.1743 10.0101C35.5702 10.2249 35.838 11.3677 35.8674 11.4972C35.9857 12.0221 36.1441 13.0608 35.8754 14.12C35.5106 15.5564 34.3095 17.2691 30.6573 17.2691Z" fill="#CDA3E0"/>
<path d="M34.8236 10.1979C34.8792 10.1979 34.949 10.2175 35.0362 10.2646C35.5571 10.5475 37.6466 16.9804 30.6572 16.9804C30.445 16.9804 30.2234 16.9747 29.9939 16.9622C29.9939 16.9622 29.9605 16.5258 29.9005 16.0311C29.8373 15.5049 29.6265 14.8874 29.7657 14.8874C29.767 14.8874 29.7688 14.8874 29.7701 14.8874H29.7706C29.9806 14.9066 30.1821 14.9155 30.3751 14.9155C34.2168 14.9155 34.7489 11.3527 34.6225 10.564C34.6065 10.4639 34.6181 10.1974 34.8236 10.1974M34.8236 9.61914C34.5958 9.61914 34.3903 9.713 34.2453 9.88338C34.0478 10.1151 34.0157 10.4341 34.0513 10.6556C34.1029 10.9777 33.9855 12.2282 33.1665 13.1886C32.5166 13.9506 31.5776 14.3372 30.3747 14.3372C30.2021 14.3372 30.0215 14.3292 29.8378 14.3132C29.8315 14.3123 29.8257 14.3118 29.8195 14.3114C29.8013 14.3096 29.783 14.3091 29.7653 14.3091C29.5789 14.3091 29.4049 14.3919 29.2879 14.5365C29.0695 14.8056 29.1331 15.1085 29.2292 15.5676C29.2652 15.7384 29.3057 15.9319 29.3262 16.1005C29.384 16.5774 29.4169 17.0027 29.4169 17.0067C29.4392 17.2963 29.6727 17.5245 29.9628 17.5401C30.1994 17.5525 30.433 17.5592 30.6567 17.5592C32.2813 17.5592 33.5865 17.2238 34.5362 16.5618C35.3565 15.9902 35.901 15.1931 36.155 14.1922C36.4388 13.0743 36.2729 11.9848 36.1488 11.4346C36.066 11.0684 35.9562 10.725 35.8312 10.4417C35.6234 9.9719 35.4446 9.82866 35.3116 9.7566C35.1421 9.66452 34.9824 9.62003 34.8231 9.61959L34.8236 9.61914Z" fill="#18181B"/>
<path d="M29.9596 16.9558C29.9596 16.9558 29.9311 16.3766 29.8906 15.9989C33.84 16.8415 35.3151 13.8579 35.6429 11.8125C35.9788 13.8966 35.6274 17.2579 29.96 16.9558H29.9596Z" fill="#A977C2"/>
<path d="M30.1426 14.8127C30.0754 14.8127 30.01 14.7913 29.9593 14.7442C29.8815 14.6717 29.8468 14.5747 29.873 14.4724C29.8739 14.4399 29.865 14.2829 29.6519 14.1009L29.5621 14.0244C29.2467 13.7562 29.1163 13.6454 29.1008 13.4492C29.095 13.3772 29.1083 13.2677 29.2026 13.1579C31.595 10.3647 31.5701 9.20006 30.3005 7.31925C30.2058 7.17913 30.0292 6.918 30.1502 6.66622C30.2587 6.43979 30.5167 6.38864 30.7792 6.36728C30.8099 6.36462 30.8414 6.36328 30.8735 6.36328C31.4286 6.36328 32.079 6.75252 32.6577 7.43047C33.2378 8.11064 33.6564 8.99187 33.8063 9.84776C33.9789 10.8335 33.8063 11.7793 33.3077 12.5818C32.7182 13.5302 31.692 14.2735 30.2574 14.7913C30.2204 14.8047 30.1813 14.8118 30.1426 14.8118V14.8127Z" fill="#CDA3E0"/>
<path d="M30.8746 6.65207C32.7194 6.65207 36.2586 12.3176 30.1602 14.5196C30.1602 14.5196 30.2193 14.2038 29.8408 13.8808C29.4337 13.5329 29.3265 13.4587 29.4235 13.3457C31.803 10.5676 31.9578 9.25531 30.5418 7.15742C30.3105 6.81533 30.339 6.693 30.8043 6.65519C30.8274 6.65341 30.851 6.65252 30.875 6.65252M30.875 6.07422C30.8354 6.07422 30.7958 6.076 30.7571 6.07911C30.557 6.09557 30.0868 6.13383 29.8915 6.54131C29.6989 6.943 29.9542 7.32068 30.0632 7.48171C30.7349 8.47683 30.9591 9.17746 30.8363 9.90034C30.7015 10.6944 30.1477 11.6121 28.9849 12.9702C28.8261 13.1553 28.8047 13.3457 28.8145 13.4724C28.8394 13.7883 29.0418 13.9604 29.3768 14.2451C29.4048 14.2687 29.4346 14.2941 29.4662 14.3212C29.5556 14.3973 29.5787 14.4533 29.5845 14.472C29.569 14.6566 29.6433 14.8395 29.786 14.9609C29.8924 15.0512 30.0254 15.0988 30.1611 15.0988C30.2269 15.0988 30.2936 15.0877 30.3572 15.0646C31.8546 14.5241 32.9302 13.7402 33.5548 12.7353C34.0917 11.8714 34.2781 10.8559 34.093 9.79891C33.932 8.87986 33.5014 7.97238 32.8799 7.24372C32.2465 6.50083 31.5161 6.07466 30.8759 6.07466L30.875 6.07422Z" fill="#18181B"/>
<path d="M32.6109 19.0555C32.6109 22.7638 30.7021 26.6539 24.0436 27.8074C20.6957 28.3875 20.1156 29.521 19.6147 29.468C19.0066 29.404 18.0329 28.0708 16.8469 27.8337C10.434 26.5512 9.12305 22.6966 9.12305 19.4243C9.12305 13.2005 14.8295 7.90593 21.0516 8.05584C28.9729 8.24713 32.6109 12.8313 32.6109 19.0551V19.0555Z" fill="#CDA3E0"/>
<path d="M19.6292 29.4806C20.1301 29.5335 20.7102 28.3996 24.0581 27.82C30.7165 26.6665 32.66 22.7634 32.66 19.0548C32.66 17.8154 32.233 15.1468 32.2152 16.1286C32.0177 26.9236 19.8009 29.7898 11.8809 25.7217C13.0352 26.6505 14.6429 27.4023 16.8618 27.8458C18.0482 28.0829 19.0215 29.4161 19.6296 29.4802L19.6292 29.4806Z" fill="#A977C2"/>
<path d="M31.5919 13.8558C31.3579 14.0008 31.2556 13.7455 31.3842 13.6316C33.862 11.4372 33.0168 8.74054 31.9625 7.14844C33.6209 8.45495 34.7014 11.9283 31.5919 13.8558Z" fill="#A977C2"/>
<path d="M9.68359 25.9677C9.68359 25.9677 9.68359 25.9681 9.68359 25.9686C9.68448 25.9686 9.68493 25.9686 9.68537 25.9681C9.68537 25.9677 9.68626 25.9672 9.68626 25.9668C9.68626 25.9668 9.68493 25.9672 9.68359 25.9681V25.9677Z" fill="#CDA3E0"/>
<path d="M11.9818 30.6257C11.9809 30.6328 11.9805 30.6373 11.9805 30.6404C11.9814 30.6346 11.9827 30.6275 11.9822 30.623C11.9822 30.6239 11.9822 30.6248 11.9822 30.6257H11.9818Z" fill="#CDA3E0"/>
<path d="M12.1778 27.0371C12.1778 27.0371 12.1778 27.0376 12.1778 27.038C12.1761 27.0478 12.1743 27.0723 12.1778 27.0371Z" fill="#CDA3E0"/>
<path d="M12.1778 27.036C12.1778 27.036 12.1778 27.0356 12.1778 27.0352C12.1743 27.0699 12.1761 27.0458 12.1778 27.036Z" fill="#CDA3E0"/>
<path d="M11.9823 30.6215C11.9827 30.626 11.9814 30.6331 11.9805 30.6389C11.9801 30.6518 11.9854 30.6384 11.9823 30.6211V30.6215Z" fill="#CDA3E0"/>
<path d="M28.8988 40.3012C28.8961 40.3039 28.8944 40.3061 28.8926 40.3083C28.8926 40.3088 28.8926 40.3092 28.8926 40.3097C28.8948 40.3066 28.897 40.303 28.8992 40.3008L28.8988 40.3012Z" fill="#CDA3E0"/>
<path d="M28.8903 40.3161C28.8903 40.3161 28.8903 40.3138 28.8903 40.3125C28.8859 40.3192 28.8814 40.3267 28.877 40.3347C28.877 40.3419 28.8872 40.3365 28.8899 40.3161H28.8903Z" fill="#CDA3E0"/>
<path d="M32.2637 40.0697C32.2637 40.0697 32.2677 40.0697 32.2721 40.0697C32.2703 40.0697 32.269 40.0688 32.2663 40.0684C32.265 40.0684 32.2637 40.0684 32.2637 40.0692V40.0697Z" fill="#CDA3E0"/>
<path d="M30.8633 40.5202C30.8633 40.5202 30.866 40.5185 30.8673 40.5176H30.8664C30.8651 40.5185 30.8646 40.5189 30.8633 40.5198V40.5202Z" fill="#CDA3E0"/>
<path d="M30.87 40.5161C30.8794 40.5125 30.8856 40.5081 30.8878 40.5059C30.8812 40.509 30.8749 40.5125 30.8691 40.5165C30.8691 40.5165 30.8696 40.5165 30.87 40.5165V40.5161Z" fill="#CDA3E0"/>
<path d="M32.2819 40.0692C32.2788 40.0692 32.2761 40.0688 32.2734 40.0684C32.293 40.0724 32.2899 40.071 32.2819 40.0692Z" fill="#CDA3E0"/>
<path d="M33.1484 38.5821C33.1489 38.5777 33.1498 38.5728 33.1502 38.5684L33.1493 38.5759C33.1493 38.5759 33.1493 38.5795 33.1484 38.5821Z" fill="#CDA3E0"/>
<path d="M33.1513 38.5631C33.1513 38.5605 33.1522 38.5574 33.1522 38.5547C33.1517 38.5591 33.1513 38.5631 33.1504 38.5676C33.1504 38.5663 33.1504 38.5649 33.1508 38.5631H33.1513Z" fill="#CDA3E0"/>
<path d="M33.3594 37.2076C33.3629 37.205 33.3669 37.2023 33.3705 37.1996C33.3816 37.1916 33.3834 37.1867 33.3798 37.1876C33.3718 37.1938 33.3647 37.2005 33.3598 37.2076H33.3594Z" fill="#CDA3E0"/>
<path d="M33.3574 37.2097C33.3574 37.2097 33.3592 37.2079 33.3601 37.207C33.3601 37.207 33.3596 37.2075 33.3592 37.2079C33.3588 37.2088 33.3583 37.2093 33.3574 37.2101V37.2097Z" fill="#CDA3E0"/>
<path d="M29.5332 40.1006C29.5332 40.1006 29.535 40.1002 29.5359 40.1002C29.5359 40.1002 29.5359 40.1002 29.5363 40.0997C29.5372 40.0984 29.5385 40.097 29.5399 40.0957C29.5381 40.097 29.5363 40.0984 29.5345 40.0993C29.5341 40.0997 29.5336 40.1002 29.5332 40.1006Z" fill="#CDA3E0"/>
<path d="M30.5736 40.517C30.5736 40.517 30.5732 40.5161 30.5727 40.5156C30.5727 40.5156 30.5727 40.5156 30.5723 40.5156C30.5727 40.5161 30.5736 40.517 30.5736 40.5174V40.517Z" fill="#CDA3E0"/>
<path d="M30.5724 40.5167C30.5724 40.5167 30.5662 40.5118 30.5604 40.5087C30.5529 40.5065 30.5493 40.5082 30.5724 40.5167Z" fill="#CDA3E0"/>
<path d="M29.5435 40.0936C29.5435 40.0936 29.5444 40.0922 29.5448 40.0918C29.5435 40.0922 29.5426 40.0931 29.5413 40.094C29.5404 40.0949 29.54 40.0958 29.5391 40.0967C29.5408 40.0958 29.5422 40.0949 29.5435 40.094V40.0936Z" fill="#CDA3E0"/>
<path d="M33.3598 37.2084C33.3598 37.2084 33.3603 37.208 33.3607 37.2075C33.3656 37.2004 33.3727 37.1937 33.3807 37.1875C33.3772 37.1884 33.3687 37.1946 33.3594 37.2084H33.3598Z" fill="#CDA3E0"/>
<path d="M32.0841 39.9785C32.0841 39.9785 32.0854 39.9799 32.0867 39.9812C32.085 39.9799 32.0836 39.9785 32.0841 39.9785Z" fill="#CDA3E0"/>
<path d="M30.5726 40.5158C30.5726 40.5158 30.5726 40.5158 30.573 40.5158C30.5708 40.5118 30.565 40.5091 30.5605 40.5078C30.5663 40.5109 30.5708 40.5136 30.5726 40.5158Z" fill="#CDA3E0"/>
<path d="M29.5405 40.0964C29.5405 40.0964 29.5418 40.0946 29.5427 40.0938C29.54 40.0955 29.5374 40.0978 29.5352 40.1C29.5369 40.0986 29.5387 40.0973 29.5405 40.0964Z" fill="#CDA3E0"/>
<path d="M30.7684 40.5405C30.7742 40.54 30.78 40.54 30.7853 40.54C30.7862 40.54 30.7871 40.54 30.788 40.54C30.7653 40.5378 30.7622 40.54 30.7684 40.5409V40.5405Z" fill="#CDA3E0"/>
<path d="M32.2729 40.0693C32.2756 40.0693 32.2783 40.0693 32.2814 40.0702C32.2769 40.0693 32.2707 40.068 32.2676 40.0684C32.2698 40.0689 32.2716 40.0693 32.2734 40.0698L32.2729 40.0693Z" fill="#CDA3E0"/>
<path d="M30.8672 40.518H30.8681C30.8739 40.514 30.8801 40.5105 30.8868 40.5074C30.8894 40.5043 30.8841 40.5051 30.8672 40.518Z" fill="#CDA3E0"/>
<path d="M33.1484 38.5755L33.1493 38.568C33.1498 38.5635 33.1502 38.5595 33.1511 38.5551C33.1524 38.5444 33.1529 38.5382 33.1484 38.5755Z" fill="#CDA3E0"/>
<path d="M28.877 40.3346C28.881 40.3266 28.8854 40.319 28.8903 40.3123C28.8903 40.3119 28.8903 40.311 28.8903 40.3105C28.8805 40.3221 28.877 40.3306 28.877 40.3346Z" fill="#CDA3E0"/>
<path d="M28.8906 40.3107C28.8906 40.3107 28.8911 40.3103 28.8915 40.3098C28.8924 40.3018 28.8924 40.2987 28.8906 40.3107Z" fill="#CDA3E0"/>
<path d="M31.2282 30.6441C31.5107 30.6197 31.7456 30.4391 31.8937 30.2033C32.0552 29.9457 32.1126 29.6321 32.1317 29.3336C32.1464 29.1085 32.1277 28.8874 32.1113 28.6632C32.0984 28.4875 32.1295 28.3287 32.1953 28.1637C32.3203 27.8496 32.5485 27.5671 32.6673 27.2415C32.8128 26.8412 32.6775 26.4608 32.4987 26.0952C32.3199 25.7295 32.093 25.4225 31.8039 25.1645C31.6055 24.987 31.3599 24.8047 31.0912 24.7557C30.8817 24.7179 30.7451 24.7949 30.593 24.927C30.4569 25.0453 30.3252 25.169 30.1882 25.2864C29.694 25.7099 29.1303 26.0827 28.5334 26.4043C27.7344 26.8349 26.9003 27.1597 26.0289 27.4101C25.1574 27.6606 24.2579 27.867 23.3714 28.0894C22.5097 28.3051 21.6311 28.5182 20.8277 28.9066C20.354 29.1357 19.8807 29.4328 19.5297 29.8319C19.5177 29.8456 19.5048 29.859 19.4937 29.8737C19.463 29.915 19.4385 29.8941 19.5626 29.8434H19.6689C19.6983 29.8603 19.7276 29.8777 19.7574 29.895C19.3028 29.488 18.8286 29.097 18.3113 28.7713C17.8722 28.4951 17.4024 28.2758 16.9189 28.0898C16.3361 27.8656 15.7378 27.6824 15.1431 27.4924C14.5011 27.2878 13.8815 27.0489 13.2787 26.7473C13.0981 26.657 12.9197 26.5618 12.7338 26.4831C12.6048 26.4283 12.4669 26.3772 12.3241 26.3865C11.9264 26.4119 11.7605 26.838 11.7787 27.1846C11.8054 27.6881 12.0652 28.1655 12.389 28.54C12.5803 28.7616 12.8112 28.9542 13.0634 29.1028C13.3921 29.2967 13.7672 29.4222 14.1239 29.5538C14.805 29.8056 15.5012 30.0111 16.1956 30.222C16.8001 30.4053 17.4047 30.5979 17.9772 30.8679C18.1209 30.9355 18.2623 31.008 18.4016 31.0841C18.6275 31.2078 18.8299 30.8621 18.6035 30.7385C17.2685 30.0089 15.7529 29.722 14.3334 29.206C13.9495 29.0663 13.543 28.9355 13.196 28.7148C12.95 28.5587 12.7244 28.3452 12.559 28.1148C12.3935 27.8843 12.2858 27.6757 12.2191 27.4217C12.2044 27.3665 12.1928 27.3109 12.1844 27.2544C12.1906 27.2949 12.1822 27.2313 12.1813 27.2188C12.1786 27.1877 12.1773 27.1566 12.1773 27.125C12.1773 27.1005 12.1791 27.0765 12.1799 27.052C12.1799 27.0418 12.1817 27.0311 12.1826 27.0209C12.1782 27.0667 12.1799 27.0391 12.1817 27.0284C12.1862 27.0044 12.1911 26.9804 12.1977 26.9564C12.2022 26.9404 12.2284 26.8741 12.2053 26.9252C12.2129 26.9088 12.2204 26.8928 12.2293 26.8772C12.2373 26.863 12.2805 26.8122 12.2422 26.8536C12.2538 26.8412 12.2658 26.8291 12.2774 26.8167C12.3112 26.7798 12.2542 26.8238 12.2978 26.8016C12.3049 26.798 12.3543 26.7731 12.3156 26.79C12.2769 26.8069 12.3223 26.79 12.3312 26.7864C12.3686 26.7713 12.3405 26.7953 12.3241 26.786C12.3303 26.7896 12.361 26.7851 12.3686 26.7851C12.3912 26.7847 12.4286 26.7993 12.3672 26.7833C12.3801 26.7869 12.3944 26.7882 12.4073 26.7913C12.4446 26.7998 12.4811 26.8118 12.5171 26.8247C12.5332 26.8305 12.5492 26.8372 12.5652 26.8434C12.6181 26.8638 12.5403 26.8314 12.5945 26.8558C12.6372 26.8754 12.6799 26.895 12.7222 26.9159C13.3223 27.2073 13.9131 27.4995 14.5452 27.7184C15.7814 28.1463 17.0528 28.4404 18.1582 29.149C18.4145 29.3132 18.6596 29.4933 18.8962 29.6842C19.039 29.7994 19.1791 29.9182 19.317 30.0392C19.4385 30.1455 19.6 30.3319 19.761 30.1744C19.8211 30.1157 19.8727 30.0472 19.9327 29.988C20.0906 29.8323 20.2174 29.7349 20.3869 29.6197C20.9866 29.2131 21.6667 28.9706 22.3585 28.7722C23.0929 28.5614 23.8376 28.3874 24.5791 28.2042C25.3207 28.0209 26.076 27.8323 26.8074 27.5898C27.5609 27.3403 28.2909 27.008 28.9804 26.6138C29.484 26.326 29.9631 25.9968 30.407 25.6236C30.5383 25.5133 30.6655 25.3985 30.7932 25.2838C30.8354 25.2459 30.8777 25.2086 30.9208 25.1721C30.9306 25.1641 30.9409 25.1565 30.9507 25.1481C30.9351 25.1619 30.9075 25.1757 30.9373 25.1588C30.9453 25.1543 30.9573 25.1472 30.9636 25.1414C30.9813 25.1241 30.9164 25.1539 30.9707 25.1414C30.9965 25.1356 30.9195 25.1374 30.968 25.1436C30.9773 25.145 31.0347 25.1494 30.9987 25.1441C30.9627 25.1387 31.0249 25.1507 31.0347 25.153C31.0579 25.1588 31.0801 25.1668 31.1028 25.1743C31.1553 25.1917 31.0921 25.1663 31.1348 25.1877C31.1579 25.1992 31.1811 25.2099 31.2038 25.2224C31.2536 25.2495 31.3021 25.2798 31.3488 25.3118C31.4458 25.3785 31.5512 25.471 31.6486 25.5716C31.7532 25.6792 31.8484 25.7949 31.9324 25.919C32.0347 26.0694 32.1233 26.2291 32.1971 26.395C32.2589 26.5342 32.3297 26.7135 32.3341 26.8425C32.3377 26.9519 32.3074 27.0738 32.2665 27.1717C32.21 27.3065 32.1326 27.4324 32.0597 27.5587C31.8973 27.8385 31.7483 28.125 31.7136 28.4519C31.6935 28.6392 31.7287 28.8265 31.7345 29.0138C31.7394 29.1686 31.7345 29.3594 31.7149 29.4933C31.6971 29.6148 31.6677 29.7344 31.6246 29.8496C31.6246 29.8488 31.6028 29.9017 31.6153 29.8737C31.6255 29.8505 31.6112 29.8826 31.6086 29.8879C31.5979 29.9088 31.5877 29.9306 31.5765 29.9511C31.5548 29.9907 31.5298 30.028 31.5036 30.065C31.4867 30.0885 31.5361 30.0285 31.5067 30.0601C31.5009 30.0663 31.496 30.073 31.4907 30.0792C31.4782 30.0921 31.4667 30.1054 31.4538 30.1179C31.4418 30.1299 31.4293 30.1406 31.4168 30.1521C31.4115 30.157 31.4053 30.161 31.4004 30.1659C31.3746 30.1913 31.4391 30.1432 31.4084 30.1597C31.3839 30.1726 31.3621 30.1908 31.3377 30.2042C31.3279 30.2095 31.3176 30.214 31.3079 30.2193C31.2656 30.2424 31.3297 30.2144 31.3136 30.2175C31.2816 30.2233 31.2465 30.2376 31.2144 30.2465C31.1646 30.2607 31.2758 30.2407 31.2265 30.2447C31.1188 30.254 31.0263 30.3301 31.0263 30.4449C31.0263 30.5458 31.1179 30.6544 31.2265 30.645L31.2282 30.6441Z" fill="#18181B"/>
<path d="M28.7946 26.7288C28.8511 26.6977 28.9085 26.6674 28.9668 26.6398C28.9917 26.6283 29.0166 26.6167 29.0419 26.6056C29.0793 26.5891 29.058 26.5989 29.0495 26.602C29.0677 26.5945 29.086 26.5874 29.1047 26.5802C29.2083 26.5406 29.3142 26.5077 29.4223 26.4837C29.4721 26.4726 29.5224 26.4632 29.5726 26.4552C29.582 26.4539 29.6122 26.4508 29.5682 26.4552C29.5789 26.4539 29.5896 26.4526 29.6002 26.4517C29.6265 26.449 29.6532 26.4463 29.6794 26.4446C29.7688 26.4383 29.8591 26.4388 29.9485 26.4454C29.9695 26.4472 29.9908 26.449 30.0117 26.4512C30.0219 26.4526 30.0366 26.4512 30.046 26.4552C30.0424 26.4539 29.997 26.4477 30.0335 26.4539C30.0727 26.4606 30.1118 26.4672 30.1505 26.4757C30.2226 26.4917 30.2933 26.5122 30.3627 26.5371C30.3787 26.5429 30.3952 26.5491 30.4112 26.5553C30.4196 26.5589 30.4285 26.5633 30.4374 26.5656C30.4352 26.5651 30.3907 26.5451 30.4201 26.5584C30.4494 26.5718 30.4779 26.5842 30.5059 26.5985C30.5566 26.6238 30.6056 26.6519 30.6532 26.683C30.6759 26.6977 30.6981 26.7137 30.7204 26.7293C30.7573 26.7559 30.6816 26.6972 30.7146 26.7248C30.723 26.7319 30.7319 26.739 30.7404 26.7462C30.768 26.7702 30.7951 26.7955 30.8178 26.824C30.8841 26.9059 31.0331 26.8979 31.1007 26.824C31.1803 26.7373 31.1714 26.6283 31.1007 26.5411C31.0429 26.4695 30.9641 26.4125 30.8894 26.3605C30.7755 26.2813 30.6505 26.2221 30.5224 26.171C30.1665 26.03 29.7733 26.0108 29.3992 26.0793C29.1153 26.1314 28.8431 26.2426 28.5913 26.3818C28.4997 26.4325 28.4619 26.5664 28.5197 26.6559C28.5775 26.7453 28.6954 26.7822 28.7937 26.7275L28.7946 26.7288Z" fill="#18181B"/>
<path d="M26.4855 34.3154C26.7261 34.5814 26.9214 34.8127 27.1105 35.1036C27.1928 35.23 27.2684 35.3612 27.3347 35.4964C27.3502 35.528 27.3649 35.5596 27.3792 35.5916C27.3863 35.6077 27.3934 35.6237 27.4001 35.6397C27.3818 35.5979 27.4045 35.6508 27.4067 35.6561C27.4348 35.726 27.4606 35.7967 27.4832 35.8683C27.5264 36.0031 27.5598 36.1406 27.5842 36.2798C27.5905 36.3158 27.5962 36.3519 27.6016 36.3879C27.6109 36.4484 27.5971 36.347 27.6042 36.4079C27.6065 36.4266 27.6087 36.4453 27.6109 36.4635C27.6198 36.5467 27.6265 36.6299 27.6305 36.7131C27.6381 36.8715 27.6305 37.0289 27.6558 37.186C27.6785 37.327 27.7297 37.4627 27.7924 37.5903C27.9263 37.863 28.1465 38.1032 28.4112 38.2536C28.6759 38.404 29.0148 38.4627 29.3249 38.5005C29.941 38.5752 30.57 38.5192 31.1781 38.4075C31.7302 38.3065 32.2769 38.1526 32.796 37.9391C33.0047 37.8532 33.212 37.7607 33.4068 37.6459C33.5496 37.5614 33.6906 37.4649 33.7943 37.3332C34.1906 36.8301 34.0985 36.1473 33.9286 35.5743C33.8561 35.3296 33.7636 35.0921 33.675 34.8527C33.5567 34.5329 33.4522 34.2082 33.3281 33.8905C32.8685 32.7157 32.2849 31.5822 31.5438 30.5595C31.2911 30.2112 31.022 29.8731 30.7271 29.5595C30.5407 29.3616 30.344 29.169 30.1225 29.0101C29.9699 28.9007 29.7862 28.8278 29.6083 28.7717C29.4174 28.7112 29.2164 28.6805 29.0162 28.6734C28.5331 28.6569 28.0478 28.7766 27.5842 28.8989C26.8271 29.0991 26.0793 29.3358 25.3266 29.5506C24.1135 29.8972 22.8915 30.2117 21.662 30.4933C21.2745 30.5818 20.8866 30.6676 20.4978 30.7508C20.392 30.7735 20.3306 30.8972 20.3582 30.9973C20.3884 31.1067 20.4983 31.1596 20.6046 31.137C21.9663 30.846 23.3204 30.5208 24.6634 30.1525C25.5081 29.9207 26.3462 29.6663 27.1879 29.4247C27.4748 29.3424 27.7626 29.2619 28.0535 29.1948C28.171 29.1676 28.2889 29.1427 28.4076 29.1222C28.4641 29.1125 28.5211 29.1045 28.5776 29.0956C28.4908 29.1089 28.5789 29.0956 28.6029 29.0929C28.6305 29.0898 28.6581 29.0867 28.6861 29.0844C28.7844 29.0755 28.8836 29.0711 28.9824 29.0729C29.0282 29.0738 29.074 29.076 29.1198 29.0795C29.1421 29.0813 29.1648 29.0835 29.187 29.0862C29.1981 29.0875 29.2092 29.0893 29.2204 29.0902C29.1354 29.0822 29.1906 29.0862 29.211 29.0893C29.3004 29.1031 29.389 29.1231 29.4757 29.1494C29.5189 29.1623 29.5616 29.177 29.6038 29.1925C29.6252 29.2005 29.6465 29.209 29.6679 29.2179C29.7141 29.2366 29.6207 29.197 29.6576 29.2134C29.6683 29.2183 29.679 29.2228 29.6897 29.2277C29.7631 29.2606 29.8347 29.2957 29.9005 29.3416C29.9174 29.3531 29.9339 29.3651 29.9504 29.3776C29.9904 29.4074 29.9303 29.3616 29.9415 29.3705C29.9526 29.3794 29.9637 29.3878 29.9744 29.3967C30.0171 29.4314 30.0589 29.4674 30.1003 29.5039C30.3449 29.7228 30.5669 29.9666 30.7769 30.2183C30.8436 30.2984 30.909 30.3794 30.9731 30.4612C30.982 30.4724 31.0358 30.5422 31.0006 30.4964C31.0175 30.5186 31.0349 30.5409 31.0518 30.5631C31.0865 30.6089 31.1212 30.6552 31.1554 30.7019C31.3076 30.9092 31.453 31.1214 31.5923 31.3376C31.9246 31.8536 32.2217 32.3919 32.4864 32.9453C32.6403 33.2673 32.7742 33.5725 32.901 33.891C33.0278 34.2095 33.1435 34.5485 33.2609 34.879C33.3423 35.1081 33.4335 35.3332 33.5078 35.5649C33.5527 35.7046 33.5923 35.8456 33.623 35.9889C33.6368 36.0525 33.6479 36.1166 33.6581 36.1811C33.6675 36.2389 33.6541 36.1397 33.6604 36.198C33.6622 36.2153 33.6644 36.2327 33.6662 36.2505C33.6702 36.2909 33.6733 36.3314 33.6746 36.3719C33.6773 36.4404 33.6768 36.5089 33.6719 36.577C33.6706 36.5939 33.6688 36.6103 33.6675 36.6272C33.663 36.6828 33.6755 36.5854 33.6662 36.6401C33.6604 36.6726 33.655 36.7055 33.647 36.7376C33.639 36.7696 33.6306 36.8012 33.6203 36.8323C33.6154 36.8479 33.6097 36.8635 33.6039 36.8786C33.6012 36.8857 33.5785 36.9351 33.599 36.8915C33.5683 36.9569 33.5331 37.0183 33.4909 37.077C33.5158 37.0427 33.4695 37.1014 33.4602 37.1117C33.4508 37.1219 33.4415 37.1308 33.4322 37.1401C33.4126 37.1584 33.3766 37.1775 33.3628 37.1993C33.3819 37.1691 33.3992 37.1722 33.3766 37.1886C33.3694 37.194 33.3623 37.1989 33.3552 37.2042C33.3401 37.2149 33.325 37.2256 33.3094 37.2358C33.2725 37.2603 33.2351 37.2834 33.1968 37.3056C33.115 37.3537 33.0309 37.3973 32.9455 37.4386C32.8975 37.4618 32.849 37.4845 32.8005 37.5058C32.7747 37.5174 32.7493 37.5285 32.7235 37.5396C32.6799 37.5583 32.7538 37.5276 32.7249 37.5392C32.7093 37.5454 32.6933 37.5521 32.6777 37.5587C32.4339 37.6584 32.1848 37.7434 31.9321 37.8176C31.6497 37.9004 31.3627 37.9689 31.0731 38.0218C30.9997 38.0352 30.9263 38.0476 30.8529 38.0592C30.816 38.065 30.7791 38.0703 30.7422 38.0757C30.6808 38.0846 30.7827 38.0708 30.7213 38.0783C30.7026 38.0805 30.6844 38.0832 30.6657 38.0854C30.5109 38.1041 30.3561 38.1179 30.2004 38.1259C29.9028 38.141 29.6052 38.1335 29.3093 38.0983C29.2506 38.0912 29.3507 38.1046 29.2924 38.0961C29.2809 38.0943 29.2693 38.0926 29.2577 38.0908C29.223 38.0854 29.1888 38.0797 29.1541 38.0734C29.0807 38.0601 29.0077 38.0445 28.9352 38.0263C28.8627 38.008 28.7991 37.9889 28.7324 37.9658C28.6763 37.9467 28.7657 37.9831 28.7124 37.9578C28.6959 37.9498 28.6794 37.9422 28.663 37.9342C28.6309 37.9177 28.5994 37.8999 28.5687 37.8808C28.538 37.8617 28.5091 37.8417 28.4801 37.8199C28.5148 37.8461 28.4686 37.8096 28.465 37.807C28.4517 37.7954 28.4383 37.7838 28.425 37.7718C28.3689 37.7207 28.3173 37.6651 28.2706 37.6055C28.2982 37.6406 28.2639 37.5952 28.2604 37.5908C28.2506 37.577 28.2408 37.5627 28.2315 37.5485C28.2128 37.5205 28.195 37.4916 28.1785 37.4622C28.1647 37.4382 28.1518 37.4137 28.1398 37.3888C28.1327 37.3741 28.126 37.359 28.1189 37.3443C28.1096 37.3234 28.11 37.3243 28.1198 37.3474C28.1158 37.3377 28.1118 37.3274 28.1083 37.3176C28.086 37.2594 28.0682 37.1998 28.0549 37.1388C28.0513 37.1228 28.0393 37.0312 28.0446 37.0903C28.0415 37.0574 28.0384 37.0249 28.038 36.992C28.0357 36.8345 28.0335 36.6779 28.0184 36.5209C27.9899 36.2175 27.9312 35.9173 27.8253 35.6312C27.7195 35.3452 27.5767 35.0756 27.405 34.8234C27.2146 34.5436 26.9966 34.2833 26.7697 34.0329C26.6972 33.9528 26.5602 33.9591 26.4868 34.0329C26.4072 34.1125 26.4138 34.2358 26.4868 34.3158L26.4855 34.3154Z" fill="#18181B"/>
<path d="M27.7123 36.7993C27.9391 36.9097 28.1914 36.9626 28.4391 37.0004C28.8608 37.0645 29.2875 37.0827 29.7136 37.0707C30.8084 37.04 31.9196 36.8527 32.8987 36.3412C33.1113 36.2304 33.3173 36.1009 33.497 35.9417C33.6318 35.822 33.7599 35.6708 33.8058 35.4924C33.8316 35.391 33.7728 35.2704 33.6661 35.2459C33.5593 35.2215 33.4477 35.2771 33.4196 35.3856C33.4165 35.3985 33.4121 35.4114 33.4081 35.4239C33.3938 35.4693 33.4312 35.3803 33.4085 35.4225C33.3925 35.4528 33.376 35.4817 33.3565 35.5093C33.3529 35.5146 33.3484 35.52 33.3449 35.5253C33.324 35.5556 33.372 35.4937 33.3547 35.5128C33.344 35.5244 33.3347 35.5373 33.324 35.5489C33.2964 35.58 33.267 35.6094 33.2363 35.6379C33.2057 35.6663 33.1741 35.6921 33.1416 35.7188C33.1314 35.7273 33.1202 35.7433 33.1509 35.7117C33.1434 35.7193 33.1327 35.7255 33.1242 35.7317C33.1038 35.7468 33.0833 35.7615 33.0629 35.7758C32.977 35.8354 32.8871 35.8901 32.796 35.9412C32.6994 35.9951 32.6002 36.0449 32.4997 36.0916C32.4463 36.1165 32.3929 36.1401 32.3387 36.1632C32.3462 36.1601 32.3729 36.149 32.3369 36.1637C32.3231 36.1694 32.3088 36.1752 32.2951 36.181C32.2639 36.1935 32.2328 36.2059 32.2012 36.2179C31.9565 36.3118 31.7061 36.3905 31.4516 36.4537C30.9245 36.5854 30.4263 36.6388 29.8769 36.6637C29.4574 36.6828 29.0343 36.6761 28.6175 36.6236C28.6073 36.6223 28.5971 36.6205 28.5868 36.6196C28.6487 36.6254 28.6051 36.6219 28.5922 36.6201C28.569 36.617 28.5459 36.6134 28.5228 36.6098C28.4827 36.6036 28.4427 36.5969 28.4027 36.5894C28.3288 36.5756 28.2554 36.56 28.1825 36.5413C28.1228 36.5262 28.0632 36.5089 28.005 36.4888C27.9814 36.4808 27.9587 36.4719 27.9356 36.463C27.8986 36.4492 27.9903 36.488 27.9445 36.4666C27.9342 36.4622 27.9244 36.4573 27.9142 36.4524C27.8204 36.4065 27.6936 36.4234 27.6402 36.524C27.5926 36.6138 27.6113 36.7491 27.7118 36.798L27.7123 36.7993Z" fill="#18181B"/>
<path d="M28.8649 29.0777C28.9956 29.0711 29.1264 29.0808 29.2568 29.0955C29.2755 29.0977 29.2937 29.1 29.3124 29.1022C29.3311 29.1044 29.3591 29.1089 29.3231 29.1035C29.3609 29.1089 29.3991 29.1142 29.4369 29.12C29.5117 29.1311 29.586 29.1431 29.6602 29.1542C29.9521 29.1992 30.2541 29.2499 30.5504 29.2192C30.7199 29.2018 30.8822 29.1636 31.0321 29.0795C31.1233 29.0283 31.162 28.8953 31.1038 28.8055C31.0455 28.7156 30.9276 28.6787 30.8297 28.7339C30.8115 28.7441 30.7781 28.7699 30.7572 28.7703C30.7813 28.7699 30.7879 28.7588 30.767 28.7654C30.7603 28.7677 30.7541 28.7703 30.7474 28.7726C30.7323 28.7779 30.7168 28.7828 30.7012 28.7872C30.674 28.7952 30.6465 28.8019 30.6189 28.8073C30.6024 28.8108 30.586 28.8135 30.5695 28.8162C30.5624 28.8175 30.5548 28.8193 30.5482 28.8193C30.5611 28.8193 30.5837 28.8153 30.5575 28.8175C30.4223 28.8299 30.2875 28.8277 30.1522 28.8166C30.0833 28.8108 30.0148 28.8024 29.9463 28.7939C29.916 28.7904 29.9801 28.7988 29.9494 28.7944C29.9409 28.793 29.9329 28.7921 29.9245 28.7908C29.908 28.7886 29.8911 28.7859 29.8747 28.7837C29.8386 28.7783 29.8026 28.773 29.7661 28.7672C29.6122 28.7436 29.4583 28.7192 29.3035 28.6996C29.158 28.6814 29.0112 28.6685 28.8644 28.676C28.7599 28.6814 28.6593 28.7641 28.6642 28.8762C28.6687 28.9799 28.7523 29.0822 28.8644 29.0764L28.8649 29.0777Z" fill="#18181B"/>
<path d="M28.4993 38.1667C28.357 38.4572 28.3587 38.7855 28.4219 39.0969C28.4837 39.4007 28.6119 39.7036 28.7938 39.955C28.974 40.2045 29.224 40.4363 29.5358 40.4995C29.6746 40.5275 29.8178 40.5195 29.9428 40.447C30.0438 40.3883 30.1234 40.2926 30.175 40.189C30.2729 39.9928 30.2925 39.7828 30.3423 39.5733L29.9562 39.467C29.9201 39.7272 29.9846 39.9812 30.1083 40.2117C30.2213 40.4225 30.3975 40.6267 30.6203 40.7246C30.8432 40.8224 31.1301 40.8135 31.3481 40.6765C31.5412 40.5551 31.6617 40.3651 31.7471 40.1587C31.8156 39.9937 31.8526 39.8193 31.8824 39.6436L31.5167 39.6912C31.5229 39.6996 31.5269 39.7094 31.5327 39.7179C31.5505 39.7428 31.514 39.6654 31.5234 39.6956C31.5251 39.7014 31.5274 39.7076 31.5296 39.7134C31.5394 39.7432 31.5461 39.7739 31.5523 39.8042C31.5665 39.8727 31.5776 39.9421 31.5941 40.0106C31.635 40.1805 31.7178 40.3629 31.8846 40.4421C32.2022 40.5929 32.5857 40.3989 32.8085 40.1672C33.0421 39.9238 33.188 39.6071 33.2987 39.2926C33.41 38.9772 33.4834 38.6489 33.5385 38.3193C33.5866 38.0324 33.6217 37.7423 33.6431 37.4523C33.6506 37.3477 33.5456 37.2476 33.4429 37.2521C33.3281 37.2574 33.2507 37.3402 33.2427 37.4523C33.236 37.547 33.2271 37.6418 33.2173 37.7361C33.2107 37.7984 33.2036 37.8606 33.1955 37.9229C33.1938 37.9376 33.192 37.9523 33.1898 37.967C33.184 38.0106 33.1964 37.9176 33.1898 37.9687C33.1844 38.007 33.1791 38.0448 33.1733 38.0831C33.1266 38.3918 33.0643 38.6987 32.9745 38.9977C32.9509 39.076 32.9251 39.1543 32.8971 39.2312C32.8842 39.2664 32.8708 39.3011 32.857 39.3358C32.8517 39.3491 32.821 39.4109 32.8503 39.3527C32.841 39.3713 32.8334 39.3914 32.8245 39.4109C32.7636 39.5457 32.6915 39.6747 32.6048 39.7939C32.5741 39.8362 32.6324 39.7615 32.5986 39.802C32.5888 39.8135 32.5794 39.8251 32.5696 39.8367C32.547 39.8629 32.5234 39.8878 32.4989 39.9118C32.4758 39.9341 32.4518 39.9545 32.4273 39.9754C32.4059 39.9941 32.4704 39.9439 32.4269 39.9754C32.4131 39.9852 32.3988 39.995 32.3846 40.0039C32.3588 40.0204 32.3321 40.0351 32.3045 40.0484C32.2992 40.0511 32.2934 40.0533 32.2881 40.056C32.2569 40.072 32.3303 40.0399 32.3067 40.0484C32.2912 40.0542 32.2756 40.0604 32.2596 40.0657C32.2302 40.0751 32.2009 40.0831 32.1706 40.0889C32.1644 40.0902 32.1582 40.0907 32.1524 40.092C32.1159 40.1 32.2062 40.088 32.1684 40.0902C32.1493 40.0911 32.1306 40.0938 32.1119 40.0938C32.1026 40.0938 32.0857 40.0898 32.0768 40.092C32.0941 40.0871 32.1235 40.1031 32.0874 40.092C32.0821 40.0902 32.0736 40.0871 32.0679 40.0867C32.0381 40.0827 32.1115 40.1138 32.071 40.088C32.0661 40.0849 32.0599 40.0804 32.055 40.0782C32.0243 40.0649 32.0874 40.1107 32.0661 40.0871C32.0599 40.0804 32.0527 40.0742 32.0461 40.068C32.0234 40.0471 32.0518 40.0502 32.0536 40.08C32.0532 40.0693 32.0309 40.0457 32.0256 40.0359C32.0216 40.0288 32.018 40.0217 32.0145 40.0146C32.0029 39.9919 32.0131 39.9861 32.0189 40.0262C32.014 39.9897 31.9931 39.9505 31.9842 39.9141C31.9504 39.7775 31.9486 39.6076 31.8641 39.4892C31.8161 39.4221 31.7498 39.382 31.6648 39.3936C31.5928 39.4034 31.5118 39.4599 31.4985 39.5368C31.4753 39.6716 31.4486 39.806 31.4059 39.9359C31.3944 39.971 31.3775 40.0057 31.3672 40.0413C31.3855 39.979 31.3632 40.0493 31.3552 40.0662C31.3454 40.0867 31.3348 40.1071 31.3236 40.1271C31.305 40.1605 31.284 40.1916 31.2627 40.2232C31.2391 40.2575 31.2934 40.1872 31.2662 40.2188C31.2614 40.2246 31.2565 40.2303 31.2516 40.2361C31.2356 40.2548 31.2187 40.2722 31.2009 40.2891C31.1942 40.2953 31.1871 40.302 31.1799 40.3077C31.1626 40.3224 31.1448 40.3224 31.1853 40.3046C31.1688 40.3117 31.1533 40.3269 31.1381 40.3362C31.1217 40.346 31.1043 40.3544 31.0874 40.3633C31.0501 40.3829 31.1324 40.3482 31.0919 40.3616C31.0803 40.3651 31.0692 40.3696 31.0576 40.3731C31.0358 40.3798 31.0136 40.3843 30.9913 40.3891C30.9526 40.3976 30.9936 40.3803 30.9998 40.3887C30.9985 40.3865 30.9633 40.3918 30.9598 40.3918C30.9375 40.3932 30.9153 40.3932 30.893 40.3918C30.8565 40.3896 30.877 40.3776 30.8966 40.3932C30.8899 40.3878 30.8681 40.3878 30.8601 40.3856C30.8396 40.3807 30.8201 40.3736 30.8001 40.3674C30.7578 40.354 30.8405 40.3887 30.8009 40.3678C30.7894 40.362 30.7778 40.3562 30.7667 40.3504C30.7476 40.3398 30.7289 40.3286 30.7111 40.3162C30.7035 40.3113 30.6968 40.306 30.6893 40.3011C30.6719 40.2882 30.675 40.2904 30.6977 40.3077C30.6906 40.302 30.6839 40.2962 30.6768 40.2904C30.6417 40.2601 30.6092 40.2272 30.5785 40.1925C30.5692 40.1819 30.5603 40.1707 30.5514 40.1601C30.5198 40.1227 30.5758 40.1956 30.5478 40.1552C30.5314 40.1316 30.5149 40.108 30.4993 40.0835C30.4686 40.0346 30.4428 39.983 30.4175 39.931C30.397 39.8883 30.4277 39.9612 30.4175 39.9327C30.4121 39.9172 30.4055 39.902 30.3997 39.8865C30.3903 39.8602 30.3814 39.8335 30.3739 39.8068C30.3663 39.7802 30.3601 39.7544 30.3548 39.7277C30.3521 39.7148 30.3499 39.7014 30.3476 39.6885C30.3396 39.6431 30.3512 39.7357 30.3481 39.6903C30.3463 39.6649 30.3441 39.64 30.3441 39.6151C30.3441 39.596 30.3534 39.503 30.3436 39.5733C30.3579 39.4701 30.3187 39.3531 30.204 39.3269C30.1012 39.3033 29.9838 39.3576 29.9575 39.4665C29.9206 39.6222 29.905 39.7815 29.8521 39.9336C29.8485 39.9439 29.8445 39.9536 29.841 39.9639C29.8272 40.0021 29.8481 39.9488 29.8454 39.9541C29.8356 39.9741 29.8267 39.9946 29.8156 40.0141C29.8058 40.0319 29.7938 40.0484 29.7831 40.0653C29.768 40.0902 29.8187 40.0262 29.7911 40.0546C29.7836 40.0626 29.7765 40.0711 29.7685 40.0791C29.7618 40.0858 29.7538 40.092 29.7475 40.0987C29.7275 40.1196 29.7876 40.0733 29.7622 40.0871C29.7538 40.0915 29.7462 40.0978 29.7378 40.1022C29.7302 40.1067 29.6915 40.1245 29.728 40.1085C29.7645 40.0924 29.7293 40.1071 29.72 40.1093C29.7106 40.1116 29.6991 40.1125 29.6902 40.1165C29.6857 40.1182 29.7431 40.1133 29.7026 40.1142C29.6897 40.1142 29.6768 40.1151 29.6639 40.1142C29.6541 40.1142 29.6128 40.1093 29.6492 40.1142C29.6857 40.1191 29.6417 40.112 29.6319 40.1098C29.6012 40.1031 29.5718 40.0929 29.5425 40.0826C29.5376 40.0809 29.5269 40.0786 29.5233 40.0751C29.5425 40.0933 29.5505 40.0871 29.5318 40.0782C29.5158 40.0706 29.4998 40.0631 29.4838 40.0546C29.4531 40.0386 29.4228 40.0222 29.3943 40.003C29.3828 39.9955 29.3717 39.9875 29.3605 39.9799C29.3236 39.9545 29.3841 40.0004 29.3579 39.9786C29.3356 39.9599 29.3134 39.9412 29.2925 39.9212C29.2462 39.8776 29.2039 39.8304 29.1639 39.7815C29.1323 39.7432 29.1786 39.8024 29.1577 39.7735C29.1483 39.7606 29.1386 39.7472 29.1292 39.7343C29.1087 39.7054 29.0892 39.6761 29.0709 39.6463C29.034 39.5866 28.9998 39.5253 28.9691 39.4625C28.9548 39.4341 28.9419 39.4047 28.9286 39.3758C28.9135 39.3424 28.9286 39.3776 28.9313 39.3829C28.9281 39.3762 28.9255 39.3691 28.9228 39.3624C28.9148 39.342 28.9063 39.3211 28.8988 39.3002C28.8748 39.2357 28.8538 39.1698 28.8365 39.1031C28.8178 39.0315 28.792 38.9505 28.7907 38.8762C28.792 38.9323 28.7907 38.874 28.7893 38.8593C28.7876 38.8406 28.7862 38.8224 28.7849 38.8037C28.7827 38.765 28.7813 38.7263 28.7822 38.6876C28.7827 38.652 28.7853 38.6169 28.7885 38.5817C28.7925 38.5337 28.7813 38.6191 28.7898 38.5711C28.7925 38.5546 28.7956 38.5377 28.7991 38.5212C28.8058 38.4888 28.8143 38.4572 28.8245 38.4256C28.8294 38.4105 28.8365 38.3954 28.841 38.3802C28.8467 38.3602 28.8325 38.4002 28.8325 38.4002C28.8383 38.3936 28.8436 38.3758 28.8476 38.3678C28.8934 38.2739 28.8761 38.1471 28.776 38.0937C28.6861 38.0461 28.5514 38.0653 28.502 38.1654L28.4993 38.1667Z" fill="#18181B"/>
<path d="M12.629 30.4218C12.5138 30.5984 12.4448 30.8115 12.3719 31.0077C12.2478 31.3427 12.1374 31.6825 12.032 32.0237C11.7362 32.9775 11.4777 33.9428 11.2464 34.9143C11.0004 35.9473 10.7838 36.9891 10.6436 38.042C10.5876 38.4633 10.5435 38.8881 10.5364 39.3134C10.5311 39.6261 10.5391 39.9553 10.6281 40.2574C10.717 40.5594 10.9341 40.7672 11.193 40.9464C11.5631 41.2031 11.996 41.3708 12.4221 41.5083C13.5939 41.8859 14.839 42.0452 16.0601 42.1635C17.4369 42.2965 18.8212 42.3504 20.2043 42.3575C21.6545 42.3646 23.1104 42.3326 24.55 42.148C25.703 42.0003 26.8689 41.7756 27.9459 41.3254C28.2586 41.1947 28.5678 41.0483 28.8489 40.8566C29.022 40.7387 29.1999 40.6039 29.3151 40.4255C29.3579 40.3592 29.3845 40.2863 29.389 40.2071C29.3952 40.099 29.2925 40.0069 29.1888 40.0069C29.0754 40.0069 28.9949 40.0986 28.9886 40.2071C28.9873 40.2325 28.9949 40.1368 28.9909 40.1835C28.9877 40.2204 28.9562 40.2075 28.9984 40.1706C28.9828 40.1844 28.9682 40.2236 28.9566 40.2418C28.929 40.2845 28.9935 40.2 28.9579 40.24C28.9446 40.2551 28.9317 40.2707 28.9179 40.2854C28.8885 40.3165 28.8574 40.3459 28.8249 40.3744C28.8067 40.3904 28.7876 40.4064 28.7684 40.4215C28.7595 40.4286 28.7493 40.4353 28.7409 40.4433C28.7675 40.4175 28.7671 40.4242 28.7391 40.4442C28.6906 40.4798 28.6412 40.514 28.5909 40.547C28.4664 40.6279 28.336 40.7009 28.2035 40.7685C28.1234 40.809 28.0429 40.8477 27.961 40.8846C27.9223 40.9019 27.8832 40.9188 27.8445 40.9362C27.8356 40.9402 27.7893 40.9593 27.8383 40.9389C27.8289 40.9429 27.82 40.9464 27.8107 40.9504C27.7827 40.962 27.7546 40.9736 27.7266 40.9847C27.518 41.0683 27.3058 41.1426 27.0918 41.2102C26.5344 41.3859 25.9632 41.5167 25.388 41.6186C23.9579 41.8722 22.5041 41.9389 21.0539 41.9545C19.7167 41.9687 18.3782 41.9371 17.0441 41.8446C15.7691 41.7556 14.5196 41.6262 13.2767 41.3299C13.0182 41.2685 12.7615 41.1987 12.5089 41.1168C12.395 41.0799 12.282 41.0403 12.1703 40.9976C12.1174 40.9771 12.0645 40.9562 12.0124 40.9344C12.0534 40.9513 11.9884 40.9242 11.9768 40.9189C11.9497 40.9068 11.9226 40.8948 11.8954 40.8824C11.7153 40.7992 11.5391 40.704 11.3763 40.5897C11.3598 40.5781 11.3438 40.5661 11.3278 40.5545C11.2815 40.5207 11.3501 40.5737 11.3065 40.5381C11.2709 40.5087 11.2357 40.4793 11.2024 40.4482C11.1761 40.4237 11.1508 40.3984 11.1263 40.3721C11.1156 40.3606 11.1058 40.3477 11.0947 40.337C11.0689 40.3121 11.1259 40.385 11.0992 40.3419C11.0876 40.3236 11.076 40.3059 11.0654 40.2872C11.06 40.2778 11.0551 40.268 11.0507 40.2587C11.0476 40.252 11.0444 40.2454 11.0413 40.2387C11.0267 40.2093 11.0364 40.2507 11.0493 40.2587C11.0222 40.2422 11.0057 40.131 10.9982 40.1012C10.9826 40.0394 10.9719 39.9767 10.9613 39.9135C10.9524 39.8597 10.9662 39.9589 10.9599 39.905C10.9581 39.8873 10.9559 39.8695 10.9537 39.8517C10.9497 39.8125 10.9461 39.7734 10.9435 39.7342C10.9181 39.3641 10.9404 38.9904 10.975 38.6217C10.9853 38.5131 10.9968 38.4046 11.0097 38.2965C11.0164 38.2404 11.0231 38.1844 11.0307 38.1279C11.0342 38.0994 11.0382 38.0709 11.0418 38.0425C11.036 38.087 11.0467 38.0073 11.0489 37.9918C11.0831 37.7449 11.1223 37.4989 11.1646 37.2538C11.2535 36.7409 11.3567 36.2302 11.4688 35.7217C11.6908 34.7168 11.947 33.719 12.2349 32.731C12.3492 32.3382 12.4688 31.9472 12.5992 31.5593C12.6499 31.4085 12.7019 31.2586 12.7571 31.1096C12.7802 31.0477 12.8038 30.9863 12.8283 30.9249C12.8376 30.9014 12.8474 30.8773 12.8572 30.8538C12.8754 30.8093 12.8367 30.9 12.8554 30.8578C12.8616 30.844 12.8674 30.8302 12.8732 30.8168C12.9026 30.751 12.9328 30.6847 12.972 30.6242C13.1134 30.408 12.7669 30.207 12.6263 30.4223L12.629 30.4218Z" fill="#18181B"/>
<path d="M11.2188 40.9481C11.2294 41.3418 11.2005 41.7493 11.3687 42.1167C11.4883 42.3774 11.7174 42.6172 11.9879 42.7217C12.3696 42.8694 12.7913 42.9375 13.1908 43.0166C14.7032 43.3165 16.2384 43.53 17.7736 43.6723C18.5342 43.7431 19.2994 43.796 20.0636 43.7925C20.8394 43.7889 21.6148 43.7293 22.3862 43.6523C23.9267 43.498 25.4649 43.2738 26.9836 42.9726C27.2274 42.9241 27.4707 42.8739 27.7123 42.8165C27.9792 42.7529 28.247 42.6821 28.4837 42.538C29.0571 42.1888 29.2799 41.5447 29.2724 40.9001C29.271 40.7955 29.2639 40.691 29.2532 40.5869C29.2426 40.4828 29.1692 40.3867 29.0531 40.3867C28.9534 40.3867 28.8418 40.4788 28.8529 40.5869C28.864 40.695 28.8711 40.8053 28.872 40.9148C28.872 40.9712 28.8711 41.0277 28.868 41.0838C28.8662 41.1158 28.864 41.1483 28.8609 41.1803C28.8591 41.1968 28.8573 41.2128 28.8555 41.2293C28.8524 41.2524 28.8529 41.2511 28.8564 41.2257C28.8551 41.2368 28.8533 41.2479 28.8515 41.2591C28.8284 41.3965 28.7955 41.5313 28.7421 41.6603C28.759 41.6194 28.7354 41.6737 28.7337 41.6781C28.7261 41.6946 28.7181 41.7106 28.7101 41.7266C28.6936 41.7591 28.6754 41.7911 28.6563 41.8222C28.6402 41.8485 28.6229 41.8743 28.6051 41.8996C28.6038 41.9019 28.566 41.9499 28.5909 41.9192C28.5749 41.9392 28.5584 41.9584 28.541 41.9775C28.4245 42.106 28.3226 42.1786 28.1638 42.2573C28.0553 42.3111 27.9263 42.3494 27.7995 42.3827C27.5931 42.437 27.384 42.4824 27.1754 42.5264C25.7665 42.8223 24.3395 43.0353 22.9173 43.1959C22.1348 43.2844 21.3492 43.3552 20.5618 43.3828C19.8367 43.4081 19.1125 43.3788 18.3892 43.3245C16.8505 43.2093 15.3394 43.0055 13.8229 42.7311C13.3242 42.6408 12.822 42.5487 12.3331 42.4125C12.2655 42.3939 12.1983 42.3743 12.1325 42.3507C12.12 42.3463 12.1076 42.3414 12.0947 42.3369C12.0497 42.3209 12.1267 42.3538 12.1102 42.3436C12.0938 42.3334 12.0751 42.3276 12.0586 42.3169C11.9145 42.227 11.8064 42.098 11.7334 41.9544C11.7134 41.9143 11.7139 41.9165 11.697 41.8654C11.6836 41.8253 11.6725 41.7849 11.6632 41.7439C11.6431 41.6536 11.6396 41.6198 11.6329 41.5193C11.6204 41.3293 11.6249 41.139 11.6196 40.949C11.6124 40.6919 11.2121 40.691 11.2192 40.949L11.2188 40.9481Z" fill="#18181B"/>
<path d="M11.6006 30.5102C11.5387 30.7936 11.5748 31.0988 11.6006 31.3839C11.6339 31.7469 11.6806 32.1086 11.7104 32.472C11.7247 32.6459 11.7358 32.8208 11.7313 32.9951C11.7287 33.0997 11.8257 33.2002 11.9315 33.1953C12.0374 33.1904 12.1286 33.1072 12.1317 32.9951C12.1406 32.6682 12.101 32.3399 12.0668 32.0156C12.0303 31.6726 11.9862 31.3287 11.9733 30.9835C11.9702 30.9066 11.9693 30.8292 11.9724 30.7522C11.9738 30.7198 11.9765 30.6873 11.9796 30.6548C11.9845 30.6059 11.9716 30.698 11.9787 30.6601C11.9813 30.6459 11.9836 30.6312 11.9867 30.617C12.0089 30.5151 11.956 30.3955 11.847 30.3706C11.746 30.3474 11.6246 30.4008 11.6006 30.5102Z" fill="#18181B"/>
<path d="M11.7726 33.375C11.507 33.3305 11.2468 33.2611 10.9932 33.1712C10.9323 33.1494 10.8713 33.1267 10.8113 33.1027C10.7944 33.096 10.7775 33.0894 10.761 33.0823C10.7544 33.0796 10.7112 33.0618 10.7348 33.0716C10.7584 33.0814 10.7152 33.0631 10.7085 33.0605C10.6921 33.0533 10.6752 33.0458 10.6587 33.0387C10.5364 32.9844 10.4158 32.9252 10.2975 32.8629C10.0688 32.742 9.84732 32.6072 9.63335 32.4613C9.52703 32.3887 9.42293 32.314 9.32017 32.2366C9.29704 32.2193 9.27391 32.2015 9.25033 32.1837C9.27747 32.2041 9.26101 32.1917 9.245 32.1792C9.23165 32.169 9.2183 32.1583 9.2054 32.1481C9.15692 32.1098 9.10887 32.0707 9.06083 32.0315C8.72275 31.7531 8.40468 31.4501 8.10663 31.1294C7.99186 31.0057 7.88065 30.8798 7.77256 30.7504C7.72985 30.6992 7.68803 30.6476 7.64666 30.5956C7.63821 30.5849 7.62976 30.5738 7.62086 30.5631C7.61686 30.5578 7.61286 30.5524 7.60841 30.5475C7.58528 30.5182 7.62131 30.5644 7.61997 30.5627C7.60529 30.5431 7.59061 30.524 7.57593 30.5048C7.51632 30.4252 7.46428 30.3376 7.39933 30.2624C7.30191 30.1494 7.17157 30.0591 7.04345 29.9844C6.98785 29.9519 6.93046 29.9247 6.87174 29.8981C6.84772 29.8869 6.82459 29.8745 6.8019 29.8607C6.78856 29.8522 6.7761 29.842 6.76231 29.8344C6.74318 29.8233 6.77521 29.8451 6.77521 29.8451C6.76765 29.8407 6.76053 29.8331 6.75341 29.8273C6.70537 29.7868 6.66133 29.741 6.62129 29.6925C6.60928 29.6783 6.59549 29.6583 6.61551 29.6859C6.60661 29.6734 6.59727 29.6614 6.58882 29.6489C6.56969 29.6218 6.55145 29.5942 6.53411 29.5662C6.49985 29.5101 6.46871 29.4523 6.44069 29.3932C6.43446 29.3798 6.42868 29.366 6.42245 29.3527C6.41266 29.3322 6.42823 29.3665 6.42823 29.3669C6.42467 29.3607 6.42245 29.3536 6.42022 29.3469C6.40821 29.3166 6.39709 29.2859 6.38686 29.2553C6.3704 29.2054 6.35661 29.1547 6.34683 29.1031C6.3446 29.092 6.34416 29.0804 6.34104 29.0698C6.35617 29.1271 6.34371 29.0947 6.34282 29.076C6.34238 29.0657 6.3446 29.0542 6.34282 29.044C6.34015 29.0257 6.33926 29.0675 6.33882 29.0689C6.34149 29.0622 6.34149 29.0524 6.34282 29.0453C6.36417 28.9394 6.414 28.8411 6.43179 28.7348C6.44558 28.6507 6.44692 28.5689 6.4051 28.4915C6.36551 28.4189 6.29745 28.3798 6.22093 28.3549C6.20981 28.3513 6.16399 28.3335 6.2027 28.3495C6.2414 28.3656 6.19157 28.3433 6.18045 28.3375C6.16577 28.3295 6.15154 28.3206 6.1373 28.3113C6.13063 28.3068 6.12396 28.3019 6.11728 28.2975C6.09015 28.2788 6.11239 28.2904 6.12752 28.3064C6.07058 28.2472 6.00741 28.1979 5.95403 28.1342C5.94735 28.1262 5.94068 28.1182 5.93445 28.1102C5.91532 28.0866 5.92912 28.0978 5.93979 28.1173C5.92912 28.0973 5.91088 28.0791 5.89798 28.0604C5.86951 28.0199 5.84193 27.9785 5.81612 27.9367C5.76141 27.8482 5.71203 27.7561 5.66755 27.6618C5.65554 27.6369 5.64397 27.6115 5.63285 27.5862C5.62751 27.5742 5.62262 27.5626 5.61728 27.5506C5.60838 27.5306 5.62529 27.5684 5.62484 27.5684C5.62395 27.5684 5.61594 27.5462 5.61505 27.5444C5.5937 27.4914 5.57368 27.4381 5.555 27.3842C5.51808 27.2775 5.48649 27.1689 5.46114 27.059C5.44824 27.0034 5.43712 26.9474 5.42733 26.8909C5.4251 26.878 5.42288 26.8651 5.4211 26.8522C5.41977 26.8442 5.41487 26.8006 5.41799 26.8335C5.4211 26.8664 5.41665 26.8228 5.41576 26.8148C5.41398 26.7979 5.41176 26.7806 5.41043 26.7637C5.40019 26.6578 5.39708 26.5506 5.40375 26.4443C5.40509 26.4203 5.40731 26.3962 5.40998 26.3722C5.41131 26.3602 5.41354 26.3486 5.41398 26.3366C5.41398 26.3397 5.40598 26.3882 5.41176 26.3549C5.41309 26.3473 5.41443 26.3393 5.41532 26.3317C5.42333 26.2841 5.434 26.2374 5.44735 26.1912C5.45402 26.1676 5.46158 26.1444 5.46959 26.1213C5.47315 26.1106 5.4776 26.1004 5.48116 26.0902C5.49228 26.0599 5.46158 26.1315 5.48027 26.092C5.50028 26.0492 5.52208 26.0074 5.54788 25.9674C5.55367 25.9585 5.55989 25.9492 5.56612 25.9403C5.57057 25.9336 5.59415 25.9029 5.57279 25.93C5.55144 25.9572 5.57591 25.9269 5.5808 25.9207C5.58881 25.9109 5.59726 25.9016 5.60616 25.8922C5.61594 25.8815 5.62662 25.8713 5.6373 25.8611C5.64352 25.8553 5.67511 25.8304 5.64797 25.8508C5.62084 25.8713 5.65153 25.8491 5.6582 25.8446C5.66799 25.8384 5.67867 25.8335 5.68845 25.8273C5.71425 25.8113 5.64619 25.8388 5.67466 25.8331C5.68312 25.8313 5.69201 25.8282 5.70002 25.8259C5.70447 25.8246 5.71292 25.825 5.71692 25.8228C5.7147 25.8242 5.67155 25.8242 5.68445 25.8277C5.69201 25.8295 5.70536 25.8277 5.71336 25.8277C5.74762 25.8273 5.70402 25.8317 5.6929 25.8242C5.69869 25.8277 5.7107 25.8277 5.71692 25.8299C5.72493 25.8322 5.73294 25.8357 5.74095 25.8379C5.76408 25.8442 5.69379 25.8126 5.73249 25.8353C5.74806 25.8446 5.76363 25.8535 5.77876 25.8633C5.805 25.8802 5.78098 25.8678 5.76853 25.8544C5.77609 25.8624 5.78632 25.8691 5.79477 25.8762C5.82814 25.9056 5.85927 25.9376 5.88819 25.971C5.90242 25.987 5.91621 26.0034 5.92956 26.0203C5.93623 26.0288 5.94291 26.0372 5.95002 26.0457C5.96337 26.0617 5.93445 26.0248 5.93534 26.0266C5.93846 26.0337 5.94691 26.0417 5.9518 26.0484C5.97894 26.0844 6.00518 26.1213 6.03098 26.1578C6.08704 26.237 6.14264 26.317 6.20492 26.3922C6.26008 26.459 6.32325 26.5074 6.40377 26.5408C6.47628 26.5711 6.57103 26.5252 6.61418 26.4692C6.65733 26.4131 6.67735 26.3099 6.62975 26.2468C6.48339 26.0524 6.33926 25.8571 6.22316 25.6427C6.20492 25.6093 6.18757 25.5759 6.17111 25.5417C6.16266 25.5248 6.15465 25.5074 6.14709 25.4905C6.14264 25.4812 6.13864 25.4714 6.13419 25.4621C6.11817 25.4265 6.1502 25.503 6.13508 25.4638C6.10794 25.3944 6.08348 25.3246 6.06657 25.2516C6.06257 25.2347 6.05945 25.2178 6.05634 25.2009C6.04655 25.1462 6.05857 25.2396 6.05501 25.1929C6.05234 25.1587 6.05011 25.1249 6.05145 25.0902C6.05145 25.0813 6.05278 25.0728 6.05323 25.0639C6.05501 25.0288 6.06257 25.0719 6.05056 25.0813C6.0559 25.0773 6.05634 25.0488 6.05857 25.0412C6.06257 25.0248 6.06835 25.0088 6.0728 24.9927C6.07992 24.9665 6.0768 25.011 6.0639 25.0123C6.06479 25.0123 6.07636 24.9865 6.07725 24.9847C6.08437 24.9709 6.09282 24.9585 6.10083 24.9451C6.12262 24.9087 6.0688 24.9767 6.10483 24.9398C6.1164 24.9278 6.12752 24.9158 6.13953 24.9047C6.14709 24.898 6.15465 24.8918 6.16221 24.8851C6.19157 24.8597 6.12752 24.9087 6.16132 24.886C6.19024 24.8664 6.21871 24.8473 6.24985 24.8313C6.25608 24.8281 6.26319 24.825 6.26942 24.8215C6.297 24.8064 6.25385 24.829 6.25074 24.829C6.26542 24.829 6.28944 24.8148 6.30368 24.8108C6.31791 24.8068 6.33215 24.8041 6.34683 24.8006C6.39353 24.7899 6.31035 24.8023 6.34104 24.801C6.37174 24.7997 6.40288 24.8006 6.43446 24.8019C6.46604 24.8032 6.40955 24.7988 6.40866 24.7983C6.41533 24.801 6.42423 24.801 6.43135 24.8023C6.44514 24.805 6.45848 24.8086 6.47227 24.8121C6.48606 24.8157 6.49941 24.8201 6.51275 24.825C6.56747 24.8446 6.47761 24.8064 6.52209 24.8286C6.57726 24.8557 6.62841 24.8873 6.67824 24.9229C6.71382 24.9487 6.64265 24.8927 6.68179 24.926C6.6938 24.9362 6.70537 24.946 6.71738 24.9563C6.74229 24.9781 6.76631 25.0007 6.78989 25.0239C6.83705 25.0706 6.88108 25.1204 6.92335 25.1711C6.93313 25.1831 6.94292 25.1951 6.9527 25.2072C6.95804 25.2138 6.96338 25.2205 6.96872 25.2272C6.98384 25.2463 6.95849 25.2272 6.95626 25.2107C6.95982 25.233 7.00164 25.2712 7.01498 25.2899C7.07993 25.3802 7.13998 25.4736 7.20093 25.5666C7.28011 25.6871 7.38287 25.8153 7.54746 25.7281C7.61819 25.6907 7.67069 25.5804 7.63955 25.5021C7.58394 25.3624 7.49631 25.2401 7.41712 25.1133C7.3713 25.0399 7.32638 24.9656 7.28589 24.8891C7.26677 24.8526 7.24897 24.8152 7.23162 24.7779C7.21294 24.7378 7.24853 24.8219 7.23296 24.7814C7.23029 24.7739 7.22717 24.7668 7.22406 24.7592C7.21561 24.7374 7.20805 24.7156 7.20093 24.6929C7.19781 24.6831 7.17379 24.5853 7.17557 24.5853C7.18225 24.5848 7.17958 24.6422 7.1778 24.5968C7.1778 24.5902 7.17691 24.583 7.17646 24.5764C7.17602 24.5635 7.18402 24.527 7.17824 24.5163C7.18936 24.5363 7.16801 24.567 7.17691 24.531C7.17869 24.5234 7.18047 24.5154 7.18269 24.5079C7.19826 24.454 7.16356 24.5368 7.18358 24.5021C7.18758 24.495 7.19159 24.4878 7.19559 24.4807C7.2165 24.4425 7.19426 24.4941 7.18714 24.4887C7.1858 24.4878 7.22406 24.4505 7.22717 24.4474C7.24764 24.4273 7.24363 24.4496 7.21739 24.4545C7.2254 24.4531 7.23963 24.4394 7.24719 24.4349C7.25831 24.4282 7.27032 24.4224 7.28189 24.4162C7.32193 24.3949 7.2334 24.4327 7.27789 24.4176C7.29301 24.4122 7.30814 24.4069 7.32371 24.4029C7.33661 24.3993 7.34995 24.3962 7.3633 24.3935C7.38598 24.3891 7.42736 24.3953 7.35929 24.3931C7.39043 24.394 7.42291 24.3882 7.45449 24.3886C7.48607 24.3891 7.51499 24.3918 7.54524 24.3944C7.58305 24.3975 7.49186 24.3855 7.52967 24.3922C7.5359 24.3935 7.54213 24.394 7.5488 24.3953C7.56793 24.3984 7.58705 24.4024 7.60618 24.4064C7.67736 24.422 7.7472 24.4429 7.81526 24.4678C7.83394 24.4749 7.85307 24.4821 7.87176 24.4892C7.88021 24.4927 7.88866 24.4967 7.89756 24.4999C7.84462 24.4812 7.87265 24.4892 7.88599 24.495C7.92425 24.5123 7.9625 24.5297 8.00032 24.5483C8.07683 24.5866 8.15201 24.628 8.22496 24.6725C8.29792 24.7169 8.37043 24.7645 8.44071 24.8144C8.47452 24.8384 8.50789 24.8624 8.5408 24.8873C8.55059 24.8944 8.55993 24.9038 8.57016 24.91C8.56705 24.9082 8.53235 24.8806 8.55904 24.9015C8.57817 24.9167 8.59774 24.9322 8.61687 24.9478C8.74677 25.0532 8.87043 25.1667 8.98476 25.289C9.01323 25.3193 9.04126 25.3504 9.06839 25.382C9.08218 25.398 9.09553 25.414 9.10887 25.43C9.11554 25.438 9.12177 25.446 9.128 25.454C9.15113 25.4825 9.12667 25.4603 9.12133 25.4451C9.132 25.4763 9.16982 25.5105 9.1885 25.5381C9.20807 25.5675 9.22676 25.5973 9.2441 25.6275C9.25967 25.6551 9.27347 25.684 9.28726 25.7125C9.30105 25.741 9.26946 25.6662 9.27702 25.6885C9.27969 25.6965 9.28325 25.704 9.28592 25.7116C9.29037 25.7245 9.29482 25.7374 9.29838 25.7503C9.30194 25.7628 9.3046 25.7752 9.30727 25.7872C9.31884 25.8362 9.30505 25.7356 9.30594 25.7752C9.30594 25.7855 9.30638 25.7957 9.30683 25.8055C9.30816 25.8566 9.31662 25.7552 9.3095 25.7908C9.29348 25.8758 9.31928 25.9736 9.40158 26.0168C9.48388 26.0599 9.57774 26.0492 9.64402 25.9856C9.64669 25.9834 9.66226 25.967 9.66359 25.9678C9.66671 25.9696 9.62845 25.9892 9.64891 25.9794C9.6498 25.9794 9.68762 25.9567 9.68762 25.9567C9.6894 25.9629 9.6458 25.971 9.67516 25.9621C9.68139 25.9603 9.68717 25.9581 9.6934 25.9563C9.69696 25.9554 9.75034 25.9447 9.75078 25.9434C9.75034 25.9456 9.70852 25.946 9.73077 25.9465C9.73966 25.9465 9.74856 25.9452 9.75746 25.9447C9.77347 25.9443 9.78949 25.9443 9.80506 25.9447C9.82063 25.9452 9.83753 25.9478 9.85354 25.9483C9.87712 25.9483 9.83397 25.9456 9.83486 25.9452C9.84509 25.9438 9.85933 25.9492 9.86956 25.9509C9.93495 25.9625 9.99901 25.9807 10.0617 26.003C10.0893 26.0128 10.116 26.023 10.1431 26.0341C10.1725 26.0457 10.1 26.0146 10.1463 26.0359C10.1583 26.0412 10.1703 26.0466 10.1818 26.0524C10.2348 26.0773 10.2859 26.1053 10.3366 26.1351C10.3665 26.1529 10.3958 26.1711 10.4243 26.1907C10.4376 26.2001 10.451 26.2098 10.4643 26.2192C10.4834 26.233 10.475 26.217 10.4563 26.2125C10.4625 26.2138 10.4719 26.2254 10.4768 26.2294C10.4995 26.2485 10.5217 26.2686 10.5422 26.2899C10.5537 26.3015 10.5644 26.3135 10.5751 26.3259C10.5791 26.3304 10.5826 26.3357 10.5866 26.3397C10.6036 26.3571 10.5613 26.3033 10.5804 26.3322C10.5955 26.3549 10.6107 26.3771 10.6236 26.4011C10.6298 26.4131 10.6347 26.426 10.6414 26.4376C10.6516 26.4549 10.6325 26.4167 10.6325 26.4167C10.6325 26.4243 10.64 26.4367 10.6427 26.4443C10.6538 26.4767 10.6623 26.5097 10.6685 26.543C10.6694 26.5493 10.6703 26.5555 10.6716 26.5613C10.6774 26.5857 10.6676 26.515 10.6698 26.5524C10.6707 26.5697 10.6725 26.5875 10.6734 26.6049C10.6747 26.6422 10.6738 26.68 10.6716 26.7174C10.6703 26.7401 10.6672 26.7628 10.6654 26.7855C10.6636 26.8082 10.6672 26.773 10.6676 26.7712C10.6649 26.7872 10.6627 26.8037 10.66 26.8197C10.6374 26.9545 10.7139 27.0622 10.8531 27.0733C10.8762 27.0751 10.8998 27.0773 10.923 27.0795C10.9345 27.0808 10.9456 27.0822 10.9572 27.0835C10.955 27.0835 10.9225 27.0782 10.9456 27.0822C10.9883 27.0902 11.031 27.0969 11.0733 27.1062C11.1489 27.1236 11.2237 27.1458 11.2962 27.1743C11.3037 27.1774 11.3153 27.1805 11.3229 27.1849C11.2864 27.1627 11.3024 27.176 11.314 27.1814C11.3304 27.1889 11.3473 27.1965 11.3638 27.2045C11.3958 27.2201 11.427 27.237 11.4577 27.2552C11.4835 27.2703 11.5088 27.2864 11.5337 27.3033C11.5475 27.3126 11.5613 27.3224 11.5747 27.3322C11.58 27.3362 11.5889 27.3446 11.5942 27.3469C11.58 27.342 11.5622 27.3211 11.5871 27.342C11.6329 27.3802 11.6774 27.4203 11.7188 27.4639C11.7375 27.4839 11.7557 27.5039 11.7735 27.5248C11.7815 27.5341 11.7891 27.5439 11.7971 27.5537C11.8171 27.5777 11.786 27.5395 11.7851 27.5377C11.7891 27.5448 11.7953 27.5515 11.8002 27.5582C11.8562 27.6347 11.9034 27.7165 11.9425 27.8028C11.9634 27.8486 11.9292 27.7686 11.939 27.7944C11.943 27.8046 11.947 27.8148 11.951 27.8251C11.9577 27.8429 11.9639 27.8611 11.9692 27.8798C11.9786 27.9109 11.9866 27.9425 11.9915 27.9745C12.007 28.0786 12.1436 28.1449 12.2379 28.1142C12.3514 28.0773 12.3945 27.9794 12.3776 27.8678C12.3518 27.6934 12.261 27.519 12.1605 27.3762C11.9924 27.1373 11.7655 26.9443 11.4968 26.8273C11.2904 26.7379 11.0778 26.6903 10.8536 26.6725L11.0466 26.926C11.0769 26.7454 11.0911 26.5622 11.044 26.3829C11.0035 26.229 10.9149 26.0888 10.7993 25.9803C10.6836 25.8718 10.5439 25.7841 10.4007 25.7143C10.2686 25.6502 10.1285 25.5937 9.98344 25.5666C9.7628 25.5252 9.53103 25.5399 9.3611 25.7032L9.69562 25.898C9.75212 25.6 9.53948 25.3197 9.35799 25.1066C9.11955 24.8264 8.82773 24.5853 8.51945 24.3855C8.21117 24.1858 7.88466 24.0265 7.52611 23.9923C7.37041 23.9776 7.21161 24.003 7.07192 24.0741C6.88331 24.1707 6.7672 24.3651 6.77521 24.5768C6.78322 24.8046 6.89265 25.019 7.00609 25.2112C7.05591 25.2952 7.10885 25.3766 7.16089 25.4589C7.18314 25.4941 7.20538 25.5297 7.22628 25.5657C7.23429 25.5795 7.2423 25.5937 7.24942 25.608C7.25253 25.6142 7.25564 25.6209 7.2592 25.6271C7.27967 25.6645 7.24141 25.5817 7.25164 25.6084L7.34372 25.3824C7.44026 25.3317 7.51677 25.3584 7.57593 25.4096C7.57326 25.4073 7.57104 25.4047 7.56882 25.402C7.54702 25.3802 7.58794 25.4265 7.58928 25.4291C7.58572 25.4229 7.58038 25.4176 7.57638 25.4113C7.55547 25.3806 7.53545 25.3495 7.51499 25.3184C7.45449 25.2254 7.3931 25.1329 7.32727 25.0439C7.14621 24.8006 6.93625 24.5652 6.64888 24.45C6.33037 24.3224 5.95803 24.4509 5.76274 24.7285C5.55544 25.0234 5.67021 25.4113 5.80856 25.7081C5.93312 25.9754 6.10705 26.2125 6.28366 26.4469L6.50964 26.1529C6.51186 26.1538 6.56702 26.1765 6.53989 26.1645C6.53144 26.1609 6.50919 26.1422 6.54167 26.1676C6.57592 26.1943 6.53677 26.1618 6.52832 26.1533C6.51676 26.1418 6.50608 26.1293 6.4954 26.1169C6.47716 26.0955 6.45181 26.059 6.48384 26.104C6.43179 26.0323 6.38108 25.9603 6.32948 25.8887C6.20225 25.7138 6.06346 25.5337 5.85483 25.4536C5.60527 25.3575 5.38329 25.5199 5.2396 25.7112C5.09592 25.9024 5.03987 26.1182 5.01229 26.342C4.95401 26.8157 5.08168 27.3068 5.26585 27.7401C5.34859 27.9345 5.44824 28.1231 5.57368 28.2931C5.68489 28.4434 5.81346 28.5942 5.98072 28.6841C6.02075 28.7059 6.0639 28.7241 6.10705 28.7379C6.11417 28.7401 6.12529 28.7459 6.13241 28.7455C6.11728 28.7463 6.0986 28.729 6.08704 28.7219C6.06524 28.7085 6.07147 28.709 6.07858 28.7165C6.06479 28.7028 6.05812 28.6881 6.04922 28.6721C6.03543 28.648 6.04166 28.6529 6.04433 28.6632C6.04433 28.6623 6.04389 28.616 6.04033 28.6311C6.03899 28.6374 6.04033 28.6476 6.04033 28.6547C6.04166 28.6863 6.05056 28.6098 6.04166 28.6431C6.03855 28.6543 6.03677 28.6658 6.03365 28.677C6.02609 28.7059 6.01675 28.7339 6.00785 28.7619C5.99006 28.8162 5.97049 28.87 5.95803 28.9256C5.90065 29.1823 6.01986 29.4657 6.14042 29.6876C6.27476 29.9345 6.45982 30.1445 6.71649 30.2642C6.78099 30.2944 6.84327 30.3296 6.90288 30.3678C6.93135 30.3861 6.95849 30.4065 6.98696 30.4256C7.00564 30.4381 6.98251 30.4216 6.98029 30.4199C6.98918 30.4265 6.99763 30.4336 7.00653 30.4408C7.02121 30.4528 7.03545 30.4652 7.04968 30.4781C7.07415 30.5008 7.09683 30.5248 7.11908 30.5493C7.14443 30.5773 7.10262 30.5226 7.12175 30.5529C7.12486 30.5582 7.12842 30.5635 7.13198 30.5689C7.1391 30.5796 7.14621 30.5907 7.15378 30.6014C7.29568 30.8082 7.45894 31.0026 7.62398 31.1917C7.89622 31.5035 8.18804 31.7984 8.49721 32.0742C8.88556 32.4208 9.30194 32.7402 9.74678 33.0106C10.2214 33.2989 10.7348 33.5356 11.273 33.6766C11.4021 33.7104 11.5328 33.7384 11.6645 33.7606C11.7673 33.778 11.8852 33.7335 11.911 33.621C11.9332 33.524 11.8816 33.3932 11.7713 33.3745L11.7726 33.375Z" fill="#18181B"/>
<path d="M9.34587 25.8892C9.31028 26.1098 9.27603 26.3314 9.20307 26.5436C9.19418 26.5689 9.18528 26.5938 9.17549 26.6187C9.17016 26.6325 9.14613 26.6797 9.17371 26.625C9.1666 26.6392 9.16126 26.6539 9.15459 26.6681C9.1279 26.726 9.09854 26.7829 9.06651 26.8376C9.03136 26.8972 8.99355 26.955 8.95263 27.0111C8.94729 27.0187 8.91837 27.0574 8.93394 27.0365C8.95129 27.0138 8.91837 27.056 8.91348 27.0618C8.88634 27.0952 8.85787 27.1281 8.82896 27.1601C8.70841 27.2936 8.57451 27.415 8.43438 27.5276C8.42415 27.536 8.41347 27.544 8.4028 27.5525C8.40013 27.5547 8.37344 27.5752 8.39479 27.5587C8.37522 27.5738 8.35564 27.5885 8.33607 27.6032C8.28936 27.6379 8.24221 27.6717 8.19416 27.7051C8.10786 27.7656 8.02023 27.8247 7.93126 27.8817C7.78046 27.9777 7.62521 28.0676 7.46373 28.1455C7.4317 28.161 7.39923 28.1757 7.36675 28.1899C7.35785 28.1939 7.34851 28.1984 7.33962 28.202C7.34495 28.2002 7.38054 28.1855 7.34673 28.1988C7.32894 28.206 7.31115 28.2131 7.29335 28.2202C7.22707 28.246 7.15945 28.2691 7.09095 28.2891C7.01799 28.3105 6.9437 28.3283 6.86897 28.3425C6.83338 28.3492 6.79779 28.3545 6.76176 28.3603C6.73907 28.3639 6.78489 28.3576 6.78356 28.3576C6.7711 28.3576 6.75776 28.3608 6.74575 28.3625C6.72884 28.3643 6.71194 28.3661 6.69503 28.3679C6.54245 28.3826 6.38854 28.3839 6.23551 28.3794C6.13053 28.3763 6.03044 28.4738 6.03533 28.5796C6.04022 28.6855 6.12341 28.7767 6.23551 28.7798C6.52599 28.7883 6.8187 28.7709 7.10207 28.7011C7.42236 28.6214 7.72485 28.476 8.00688 28.3065C8.63545 27.9288 9.26713 27.4502 9.55139 26.7518C9.65014 26.5093 9.69151 26.2522 9.73244 25.9955C9.7489 25.8928 9.70575 25.7749 9.59276 25.7491C9.49667 25.7273 9.36411 25.7784 9.34631 25.8888L9.34587 25.8892Z" fill="#18181B"/>
<path d="M10.6968 26.7141C10.6634 26.8782 10.6136 27.0388 10.5553 27.1954C10.5437 27.2266 10.5317 27.2573 10.5197 27.288C10.5135 27.3031 10.5073 27.3186 10.501 27.3338C10.4859 27.3711 10.517 27.2973 10.5059 27.3227C10.5006 27.3351 10.4952 27.3476 10.4899 27.36C10.4574 27.4348 10.4227 27.5082 10.3858 27.5811C10.2986 27.7546 10.2003 27.9223 10.0931 28.0838C10.0322 28.175 9.96765 28.2635 9.90226 28.3516C9.8818 28.3792 9.93118 28.3151 9.89559 28.36C9.88803 28.3694 9.88091 28.3787 9.87335 28.3881C9.85466 28.4116 9.83553 28.4352 9.81641 28.4588C9.77681 28.5068 9.73678 28.5544 9.69541 28.6011C9.51702 28.804 9.32396 28.9939 9.11844 29.1692C9.06729 29.2128 9.01479 29.2555 8.96186 29.2973C8.92983 29.3222 8.94629 29.3093 8.95341 29.304C8.93695 29.3165 8.92093 29.3289 8.90447 29.3409C8.87778 29.3609 8.85065 29.3805 8.82307 29.4001C8.71986 29.4735 8.61399 29.5429 8.505 29.6074C8.40624 29.6657 8.30482 29.7204 8.20162 29.7706C8.15847 29.7915 8.11532 29.8116 8.07128 29.8307C8.05971 29.836 8.0477 29.8409 8.03569 29.8458C8.00677 29.8583 8.08062 29.828 8.0348 29.8458C8.01211 29.8547 7.98898 29.8641 7.96629 29.873C7.79458 29.9392 7.61709 29.9931 7.43604 30.0242C7.41824 30.0273 7.4 30.03 7.38221 30.0326C7.35107 30.0375 7.40712 30.0295 7.40712 30.0295C7.39645 30.0295 7.38577 30.0322 7.37554 30.0331C7.34529 30.0362 7.31459 30.0389 7.2839 30.0402C7.25765 30.0411 7.23185 30.0415 7.20561 30.0402C7.19404 30.0398 7.18292 30.0389 7.1718 30.038C7.12464 30.0349 7.22429 30.0464 7.18692 30.0402C7.08416 30.0233 6.96628 30.0669 6.94048 30.1799C6.91868 30.2764 6.96984 30.4081 7.08016 30.4263C7.35774 30.4717 7.65179 30.4014 7.91469 30.3147C8.36621 30.1661 8.78703 29.9303 9.16337 29.6421C9.91783 29.0642 10.5348 28.3013 10.8956 27.4187C10.9748 27.2252 11.0415 27.025 11.0829 26.82C11.1038 26.7177 11.0535 26.5989 10.9432 26.5735C10.8436 26.5508 10.7194 26.6038 10.6968 26.7132V26.7141Z" fill="#18181B"/>
<path d="M15.0633 38.0098C16.0188 38.1148 16.9766 38.1939 17.937 38.2362C18.8974 38.2785 19.8218 38.2842 20.764 38.2687C21.357 38.2589 21.95 38.2407 22.5425 38.2184L22.3752 38.0912C22.5345 38.9262 22.9184 39.7304 23.6079 40.2518C23.6635 40.2941 23.7213 40.3341 23.7805 40.371C23.7925 40.3786 23.829 40.4111 23.8045 40.383C23.7885 40.3648 23.7405 40.27 23.7489 40.3016C23.7325 40.2389 23.7445 40.2571 23.7427 40.2852C23.7418 40.299 23.7396 40.3127 23.7383 40.3265C23.7436 40.2487 23.7383 40.3256 23.7342 40.3474C23.7254 40.3982 23.7151 40.4489 23.7036 40.4996C23.6729 40.6361 23.6355 40.7714 23.5919 40.9044C23.5674 40.9791 23.5412 41.0534 23.5123 41.1264C23.5052 41.1446 23.4976 41.1624 23.4905 41.1806C23.4865 41.1909 23.4745 41.2176 23.4923 41.1771C23.4882 41.186 23.4847 41.1949 23.4807 41.2038C23.4642 41.2411 23.4473 41.2781 23.4291 41.315C23.3944 41.3862 23.3561 41.456 23.3139 41.5227C23.2947 41.553 23.2738 41.5823 23.2529 41.6117C23.2494 41.617 23.2449 41.6237 23.2405 41.6286C23.2743 41.5921 23.2489 41.6175 23.2418 41.6264C23.2298 41.6406 23.2178 41.6548 23.2053 41.6691C23.1835 41.6931 23.1608 41.7167 23.1364 41.7385C23.1248 41.7491 23.1124 41.7585 23.1003 41.7687C23.0834 41.7838 23.1373 41.7429 23.1097 41.7612C23.1021 41.7661 23.095 41.7714 23.0874 41.7767C23.0768 41.7838 23.0123 41.811 23.0105 41.8194C23.0127 41.8088 23.0536 41.8039 23.0203 41.815C23.0149 41.8168 23.0096 41.819 23.0043 41.8208C22.9914 41.8252 22.978 41.8283 22.9647 41.8319C22.9051 41.8461 22.8446 41.8559 22.7836 41.8648C22.7654 41.8675 22.6924 41.8759 22.7689 41.867C22.7471 41.8697 22.7253 41.8728 22.7035 41.8755C22.6577 41.8808 22.6115 41.8862 22.5656 41.8906C22.0434 41.944 21.5176 41.9653 20.9931 41.9809C20.2867 42.0023 19.5798 42.0067 18.8734 41.996C18.1399 41.9849 17.4063 41.9587 16.675 41.9031C16.3458 41.8782 16.0166 41.8475 15.6888 41.8056C15.6705 41.8034 15.6523 41.8007 15.6336 41.7985C15.6198 41.7967 15.558 41.7892 15.6145 41.7959C15.5789 41.7914 15.5433 41.7861 15.5077 41.7807C15.4357 41.7705 15.3636 41.7594 15.2915 41.7474C15.1603 41.726 15.03 41.702 14.9001 41.674C14.7866 41.6495 14.6736 41.6224 14.5624 41.5899C14.5139 41.5757 14.4654 41.5605 14.4178 41.5441C14.4067 41.5401 14.396 41.5365 14.3849 41.5325C14.3769 41.5298 14.3364 41.5134 14.3702 41.5276C14.4041 41.5419 14.3662 41.5249 14.3582 41.5205C14.3444 41.5129 14.3315 41.5049 14.3186 41.4965C14.3142 41.4934 14.304 41.4831 14.2986 41.4822C14.3 41.4822 14.3338 41.5112 14.3138 41.4938C14.3026 41.484 14.2915 41.4751 14.2808 41.4653C14.2555 41.4422 14.2315 41.4173 14.2083 41.3915C14.1972 41.379 14.1865 41.3661 14.1758 41.3532C14.1714 41.3479 14.1674 41.3426 14.1629 41.3372C14.1385 41.3088 14.1865 41.3701 14.1643 41.339C14.142 41.3079 14.1189 41.2767 14.0976 41.2447C14.0055 41.1055 13.9285 40.9564 13.8613 40.8039C13.8582 40.7963 13.8547 40.7887 13.8516 40.7812C13.8342 40.742 13.8658 40.8168 13.8498 40.7772C13.8422 40.758 13.8342 40.7393 13.8266 40.7202C13.8111 40.6806 13.7964 40.641 13.7822 40.601C13.7559 40.5272 13.7328 40.452 13.7128 40.3759C13.6945 40.3074 13.6807 40.2385 13.6692 40.1686C13.6638 40.1352 13.6723 40.2064 13.6709 40.1833C13.6709 40.1762 13.6692 40.1686 13.6683 40.1615C13.6669 40.1477 13.6656 40.1339 13.6647 40.1201C13.6629 40.093 13.6625 40.0654 13.6643 40.0383C13.6661 40.0129 13.6812 39.9973 13.6621 40.0458C13.6652 40.0383 13.6652 40.028 13.6674 40.02C13.6696 40.012 13.6736 40.0031 13.6754 39.9947C13.6723 40.0134 13.6532 40.0356 13.6718 40.0085C13.6825 39.9925 13.6349 40.0485 13.6612 40.0236C13.6714 40.0143 13.6153 40.0481 13.646 40.0369C13.6812 40.024 13.715 40.0045 13.7475 39.9862C13.8983 39.9013 14.0344 39.786 14.1549 39.6628C14.4152 39.3968 14.6247 39.0801 14.808 38.7576C14.941 38.5227 15.0615 38.2802 15.1683 38.0325C15.1897 37.9826 15.211 37.9328 15.231 37.8826C15.2644 37.798 15.1945 37.6886 15.11 37.669C15.0099 37.6463 14.9325 37.6997 14.8965 37.79C14.892 37.8011 14.8876 37.8118 14.8832 37.8229C14.8809 37.8287 14.8783 37.8341 14.876 37.8398C14.8614 37.8754 14.8938 37.798 14.8823 37.8252C14.8747 37.843 14.8667 37.8612 14.8591 37.879C14.8111 37.9893 14.7599 38.0987 14.7065 38.2068C14.5522 38.5196 14.3783 38.8252 14.1718 39.1068C14.1585 39.1246 14.1452 39.1424 14.1318 39.1601C14.126 39.1682 14.1065 39.1926 14.1305 39.1619C14.1225 39.1722 14.114 39.1828 14.106 39.1931C14.0775 39.2291 14.0482 39.2642 14.0179 39.2989C13.9597 39.3661 13.8983 39.4311 13.8329 39.4916C13.8017 39.5205 13.7697 39.5489 13.7363 39.5756C13.7301 39.5805 13.7239 39.5854 13.7177 39.5908C13.6856 39.617 13.7488 39.5685 13.7154 39.5925C13.6963 39.6059 13.6776 39.6201 13.6585 39.633C13.5971 39.6744 13.5308 39.7033 13.4668 39.7389C13.3489 39.8043 13.3164 39.9497 13.3164 40.0739C13.3164 40.2171 13.3484 40.3626 13.3867 40.5C13.4783 40.8297 13.6202 41.1602 13.8133 41.4435C13.9032 41.5752 14.005 41.6993 14.1367 41.7914C14.2297 41.8564 14.3476 41.8879 14.4557 41.92C15.0033 42.0819 15.582 42.1477 16.1487 42.2038C16.8721 42.2754 17.5989 42.311 18.3254 42.331C19.0518 42.351 19.8005 42.3532 20.538 42.339C21.1283 42.3274 21.7195 42.3079 22.3085 42.2603C22.5083 42.2443 22.7084 42.2251 22.9068 42.194C22.9727 42.1838 23.0412 42.174 23.1043 42.1522C23.2503 42.1019 23.3748 42.0054 23.4736 41.8879C23.692 41.6286 23.8263 41.3056 23.9295 40.9862C24.0016 40.7634 24.0754 40.5214 24.0892 40.2856C24.0928 40.2278 24.0786 40.1699 24.0363 40.1272C23.9834 40.0743 23.9033 40.0396 23.8423 39.996C23.8281 39.9858 23.8139 39.9755 23.8001 39.9653C23.793 39.96 23.7858 39.9546 23.7787 39.9493C23.7592 39.9351 23.813 39.9769 23.7841 39.9533C23.7525 39.9275 23.7209 39.9021 23.6902 39.8759C23.6279 39.8221 23.5683 39.7647 23.5118 39.7051C23.4504 39.6406 23.3926 39.573 23.3374 39.5031C23.365 39.5378 23.3228 39.4835 23.3161 39.4742C23.3027 39.456 23.2894 39.4373 23.2765 39.419C23.2467 39.3768 23.2182 39.3341 23.1911 39.2905C23.1355 39.202 23.0848 39.1103 23.0381 39.0169C23.0145 38.9698 22.9922 38.9217 22.9704 38.8732C22.9504 38.8278 22.9375 38.7972 22.9126 38.7304C22.8228 38.4933 22.7578 38.2482 22.7102 37.9991C22.6964 37.9275 22.6141 37.8692 22.5429 37.8719C21.5274 37.9106 20.5109 37.9364 19.494 37.9288C18.5669 37.9221 17.6403 37.8857 16.7159 37.8167C16.1643 37.7758 15.6136 37.7233 15.0633 37.6628C14.973 37.653 14.8858 37.7495 14.8898 37.8363C14.8943 37.9386 14.9663 37.9991 15.0633 38.0098Z" fill="#18181B"/>
<path d="M20.747 33.1947C20.4872 32.9407 19.4032 32.9719 18.6131 33.3914C17.7759 33.8358 17.6353 34.4163 17.5926 34.7166C17.5157 35.2593 17.799 35.7699 18.2599 36.0079C18.3378 35.9216 18.4285 35.8273 18.5126 35.7126C18.7581 35.3776 18.7826 34.9901 18.8195 34.717C18.9129 34.0302 19.5451 33.5493 20.2319 33.6423C20.3818 33.6627 20.5224 33.7085 20.6492 33.7757C20.7181 33.6996 20.7764 33.6298 20.8098 33.5573C20.8329 33.515 20.8462 33.467 20.8462 33.4154C20.8462 33.3277 20.808 33.249 20.747 33.1947Z" fill="#0FD8A3"/>
<path d="M20.0774 35.0691C20.1161 34.7955 20.1424 34.4085 20.3901 34.0748C20.4769 33.9578 20.5699 33.8631 20.649 33.7759C20.5227 33.7087 20.3821 33.6629 20.2318 33.6425C19.5449 33.549 18.9128 34.0304 18.8194 34.7172C18.7825 34.9908 18.758 35.3778 18.5124 35.7128C18.4279 35.8275 18.3372 35.9218 18.2598 36.0081C18.3817 36.0709 18.5156 36.1149 18.6588 36.1354C19.3452 36.2323 19.98 35.755 20.0774 35.0686V35.0691Z" fill="#1279D6"/>
<path d="M20.6491 33.7754C20.5699 33.8626 20.4765 33.9573 20.3902 34.0743C20.1429 34.408 20.1166 34.795 20.0775 35.0686C19.9805 35.755 19.3453 36.2323 18.6589 36.1353C18.5156 36.1153 18.3817 36.0712 18.2598 36.0081C18.1891 36.0859 18.1299 36.158 18.0961 36.2323C18.0734 36.2745 18.0605 36.3226 18.0605 36.3742C18.061 36.4618 18.0997 36.5401 18.1611 36.5944C18.4222 36.847 19.5059 36.8097 20.2941 36.3857C21.1286 35.9365 21.2661 35.355 21.3066 35.0548C21.3795 34.5178 21.102 34.0147 20.6487 33.7758L20.6491 33.7754Z" fill="#1D39AA"/>
<path d="M15.5537 38.6345C15.547 38.6509 15.5403 38.6674 15.5336 38.6838C15.5296 38.6932 15.519 38.7292 15.5336 38.6847C15.5305 38.6941 15.5256 38.7034 15.5216 38.7123C15.5038 38.7537 15.4851 38.7951 15.4665 38.8364C15.4264 38.9241 15.3842 39.0113 15.341 39.0976C15.2627 39.2524 15.1822 39.4085 15.083 39.5513C15.031 39.626 15.067 39.747 15.1453 39.7884C15.2338 39.8351 15.3272 39.8057 15.3824 39.7261C15.4843 39.5793 15.567 39.4187 15.6471 39.2595C15.7347 39.0851 15.8166 38.9076 15.8886 38.7266C15.9224 38.642 15.8521 38.5326 15.7676 38.513C15.6675 38.4903 15.5901 38.5437 15.5541 38.634L15.5537 38.6345Z" fill="#18181B"/>
<path d="M14.7024 40.0318C14.6295 40.1176 14.5761 40.2182 14.5076 40.3076L14.5347 40.2724C14.4898 40.3307 14.4409 40.385 14.3861 40.4344C14.319 40.4953 14.3194 40.6185 14.3861 40.6795C14.4582 40.7457 14.5596 40.7449 14.6313 40.6795C14.7144 40.6038 14.7856 40.5153 14.8501 40.4232C14.8897 40.3672 14.924 40.3071 14.9653 40.2529L14.9382 40.288C14.9413 40.284 14.944 40.2804 14.9471 40.2769C14.9773 40.2413 14.9978 40.2026 14.9978 40.1541C14.9978 40.1114 14.9791 40.0607 14.9471 40.0313C14.9151 40.002 14.8706 39.9784 14.8243 39.9806C14.7807 39.9824 14.7309 39.9966 14.7015 40.0313L14.7024 40.0318Z" fill="#18181B"/>
<path d="M21.5874 38.8111C21.6594 38.9926 21.7417 39.1696 21.8289 39.344C21.909 39.5032 21.9917 39.6638 22.0936 39.8106C22.1452 39.8849 22.2479 39.9263 22.3307 39.8729C22.4045 39.8253 22.4481 39.7154 22.393 39.6358C22.2938 39.493 22.2128 39.3369 22.135 39.1821C22.0914 39.0958 22.0495 39.009 22.0095 38.9209C21.9917 38.8818 21.9739 38.8422 21.9566 38.8026C21.9521 38.7919 21.9459 38.7804 21.9423 38.7692C21.9472 38.7857 21.9535 38.7964 21.9441 38.7732C21.9366 38.755 21.929 38.7368 21.9219 38.7185C21.8885 38.6345 21.8044 38.5664 21.7083 38.5975C21.6269 38.6238 21.5513 38.7208 21.5874 38.8111Z" fill="#18181B"/>
<path d="M22.5279 40.3627C22.531 40.3662 22.5341 40.3702 22.5368 40.3738L22.5096 40.3387C22.551 40.3934 22.5857 40.453 22.6248 40.509C22.6893 40.6007 22.7605 40.6892 22.8437 40.7653C22.8775 40.796 22.9198 40.816 22.9665 40.816C23.0092 40.816 23.0599 40.7973 23.0893 40.7653C23.1186 40.7332 23.1422 40.6887 23.14 40.6425C23.1377 40.5962 23.1235 40.5508 23.0893 40.5197C23.035 40.4703 22.9856 40.4156 22.9407 40.3578L22.9678 40.3929C22.8993 40.3035 22.8455 40.203 22.773 40.1171C22.7458 40.0851 22.6911 40.0664 22.6502 40.0664C22.6093 40.0664 22.5568 40.0851 22.5274 40.1171C22.4981 40.1491 22.4745 40.1936 22.4767 40.2399C22.4789 40.2862 22.4963 40.3258 22.5274 40.3627H22.5279Z" fill="#18181B"/>
<path d="M15.901 33.3465C15.8641 33.3465 15.8267 33.3425 15.7903 33.3345C15.5136 33.2736 15.3379 32.9991 15.3988 32.7224L16.022 29.8878C16.0736 29.6539 16.2845 29.4844 16.5234 29.4844C16.5603 29.4844 16.5977 29.4884 16.6341 29.4964C16.768 29.5257 16.8828 29.6058 16.9566 29.7215C17.0305 29.8371 17.055 29.9746 17.0256 30.1085L16.4024 32.9431C16.3508 33.177 16.1399 33.3465 15.901 33.3465Z" fill="#0FD8A3"/>
<path d="M16.5228 29.6395C16.5482 29.6395 16.574 29.6422 16.6003 29.648C16.7933 29.6907 16.9156 29.8815 16.8729 30.0746L16.2497 32.9091C16.2128 33.0764 16.0647 33.1903 15.9001 33.1903C15.8747 33.1903 15.8489 33.1876 15.8227 33.1818C15.6296 33.1391 15.5073 32.9483 15.55 32.7552L16.1732 29.9207C16.2101 29.7534 16.3583 29.6395 16.5228 29.6395ZM16.5228 29.3281C16.211 29.3281 15.9361 29.5492 15.8694 29.8539L15.2461 32.6885C15.167 33.0493 15.3956 33.4069 15.7564 33.4861C15.804 33.4963 15.8525 33.5017 15.9005 33.5017C16.2123 33.5017 16.4873 33.2806 16.554 32.9759L17.1772 30.1413C17.2564 29.7805 17.0277 29.4229 16.667 29.3437C16.6198 29.3335 16.5709 29.3281 16.5228 29.3281Z" fill="#18181B"/>
<path d="M23.0033 33.4701C22.7284 33.4701 22.5028 33.2548 22.4904 32.9798L22.356 30.0808C22.3498 29.9438 22.3969 29.8121 22.4895 29.7107C22.582 29.6092 22.7083 29.5496 22.8453 29.5434C22.8534 29.5434 22.8614 29.543 22.8694 29.543C23.1443 29.543 23.3698 29.7583 23.3823 30.0332L23.5166 32.9322C23.5228 33.0693 23.4757 33.2009 23.3832 33.3024C23.2906 33.4038 23.1643 33.4634 23.0273 33.4696C23.0193 33.4696 23.0113 33.4701 23.0033 33.4701Z" fill="#0FD8A3"/>
<path d="M22.869 29.6981C23.0594 29.6981 23.2178 29.8476 23.2267 30.0398L23.361 32.9388C23.3704 33.1363 23.2173 33.304 23.0198 33.3134C23.0141 33.3134 23.0087 33.3134 23.0029 33.3134C22.8125 33.3134 22.6542 33.1639 22.6453 32.9717L22.5109 30.0727C22.5016 29.8752 22.6546 29.7075 22.8521 29.6981C22.8579 29.6981 22.8632 29.6981 22.869 29.6981ZM22.869 29.3867C22.8588 29.3867 22.8481 29.3867 22.8379 29.3876C22.6591 29.3961 22.4945 29.473 22.3739 29.6056C22.2534 29.7377 22.1915 29.909 22.2 30.0878L22.3343 32.9869C22.3508 33.345 22.6444 33.6257 23.0029 33.6257C23.0132 33.6257 23.0238 33.6257 23.0341 33.6248C23.2129 33.6163 23.3775 33.5394 23.498 33.4068C23.6186 33.2747 23.6804 33.1034 23.672 32.9246L23.5376 30.0255C23.5212 29.6674 23.2276 29.3867 22.869 29.3867Z" fill="#18181B"/>
<path d="M14.4173 22.3633C13.2541 22.3917 12.9075 21.7903 12.9182 21.2258C12.9418 19.9584 13.4867 18.4958 14.3662 18.4673C15.3413 18.4357 15.803 19.9073 15.8827 21.1773C15.9191 21.764 15.5886 22.3343 14.4178 22.3628L14.4173 22.3633Z" fill="#18181B"/>
<path d="M14.5051 21.9438C14.7635 21.9438 14.9731 21.7342 14.9731 21.4758C14.9731 21.2173 14.7635 21.0078 14.5051 21.0078C14.2466 21.0078 14.0371 21.2173 14.0371 21.4758C14.0371 21.7342 14.2466 21.9438 14.5051 21.9438Z" fill="white"/>
<path d="M24.5864 22.4357C23.4231 22.4637 23.077 21.8841 23.0881 21.3391C23.1126 20.1158 23.6584 18.7043 24.5379 18.6763C25.513 18.6451 25.9739 20.0646 26.0526 21.2906C26.0891 21.8569 25.7577 22.4076 24.5868 22.4357H24.5864Z" fill="#18181B"/>
<path d="M24.384 21.936C24.6424 21.936 24.852 21.7264 24.852 21.468C24.852 21.2095 24.6424 21 24.384 21C24.1255 21 23.916 21.2095 23.916 21.468C23.916 21.7264 24.1255 21.936 24.384 21.936Z" fill="white"/>
<path d="M14.9219 24.4305C14.8418 24.8219 13.9628 25.1329 13.0536 24.9465C12.1443 24.7601 11.5482 24.1471 11.6283 23.7561C11.7084 23.3646 12.5109 23.1987 13.4201 23.3851C14.3294 23.5715 15.002 24.0394 14.9219 24.4309V24.4305Z" fill="#DDBBEF"/>
<path d="M26.1931 25.0287C27.0654 24.7109 27.6475 24.1098 27.4931 23.6863C27.3388 23.2627 26.5065 23.177 25.6342 23.4948C24.7618 23.8126 24.1798 24.4137 24.3341 24.8373C24.4885 25.2609 25.3208 25.3466 26.1931 25.0287Z" fill="#DDBBEF"/>
<path d="M18.6391 23.8203L18.6298 23.8902L18.507 24.0499C18.4385 24.0588 18.37 24.0677 18.3015 24.0766C18.3024 24.0766 18.1805 24.004 18.1862 24.0103C18.1965 24.0205 18.1382 23.944 18.1493 23.9622C18.1524 23.9671 18.1564 23.972 18.1596 23.9769C18.1707 23.9929 18.1822 24.0094 18.1938 24.025C18.2436 24.093 18.2961 24.1597 18.3544 24.2202C18.5194 24.3915 18.721 24.5178 18.9434 24.6006C19.2272 24.706 19.5564 24.718 19.8491 24.6433C20.1053 24.5779 20.3371 24.44 20.5337 24.2661C20.6382 24.1735 20.7374 24.0641 20.8135 23.9462C20.8896 23.8283 20.8415 23.6464 20.7179 23.581C20.5853 23.5112 20.4336 23.5512 20.3526 23.6766C20.3486 23.6829 20.3446 23.6887 20.3406 23.6944C20.3357 23.7016 20.3304 23.7082 20.3255 23.7153C20.2997 23.7509 20.3776 23.6504 20.3424 23.6935C20.2966 23.7496 20.2481 23.803 20.1956 23.8528C20.1787 23.8684 20.1618 23.8839 20.1445 23.8991C20.1347 23.9075 20.1 23.9467 20.088 23.9458C20.0995 23.9462 20.144 23.9035 20.1044 23.9329C20.0929 23.9413 20.0813 23.9498 20.0697 23.9578C20.0475 23.9734 20.0244 23.9885 20.0012 24.0027C19.9518 24.033 19.9002 24.0592 19.8477 24.0841C19.8064 24.1037 19.9034 24.0628 19.8598 24.0792C19.8442 24.085 19.8286 24.0912 19.813 24.0966C19.7832 24.1073 19.753 24.1166 19.7223 24.1246C19.6916 24.1326 19.6587 24.1402 19.6262 24.1464C19.6155 24.1482 19.5613 24.1562 19.608 24.15C19.6547 24.1437 19.592 24.1513 19.5799 24.1522C19.5079 24.158 19.4354 24.1575 19.3633 24.1522C19.3446 24.1508 19.3259 24.1486 19.3073 24.1464C19.2775 24.1433 19.342 24.1513 19.3393 24.1508C19.3317 24.1491 19.3237 24.1486 19.3166 24.1473C19.2846 24.1419 19.2525 24.1353 19.221 24.1277C19.1613 24.113 19.1062 24.0899 19.0484 24.0712C19.0439 24.0699 19.1066 24.0975 19.0817 24.085C19.0742 24.081 19.0657 24.0779 19.0581 24.0743C19.0466 24.069 19.035 24.0632 19.0234 24.0574C18.9994 24.0454 18.9758 24.0325 18.9527 24.0187C18.9122 23.9947 18.862 23.9685 18.8282 23.9347C18.8264 23.9329 18.886 23.9814 18.8566 23.9564C18.8526 23.9529 18.8482 23.9498 18.8442 23.9462C18.8362 23.9395 18.8282 23.9329 18.8202 23.9262C18.8037 23.912 18.7877 23.8977 18.7721 23.8826C18.7441 23.8559 18.7174 23.8279 18.692 23.799C18.6791 23.7847 18.6671 23.7701 18.6551 23.7549C18.6502 23.7492 18.6458 23.7411 18.64 23.7358C18.648 23.7429 18.6898 23.8016 18.6627 23.7647C18.6489 23.746 18.636 23.7274 18.6226 23.7087C18.6044 23.6824 18.5866 23.6522 18.5635 23.6313C18.4927 23.5668 18.3975 23.5356 18.3024 23.5619C18.1818 23.5952 18.1164 23.702 18.1062 23.8203C18.0942 23.96 18.2374 24.0935 18.3731 24.0872C18.5279 24.0801 18.6271 23.9698 18.64 23.8203H18.6391Z" fill="#18181B"/>
</g>
</g>
<rect x="0.5" y="0.5" width="41" height="41" rx="20.5" stroke="#8051B8"/>
<defs>
<clipPath id="clip0_263_19273">
<rect x="1" y="1" width="40" height="40" rx="20" fill="white"/>
</clipPath>
<clipPath id="clip1_263_19273">
<rect width="34" height="45.4445" fill="white" transform="translate(5 6)"/>
</clipPath>
</defs>
</svg>
