<svg width="400" height="160" viewBox="0 0 400 160" fill="none" xmlns="http://www.w3.org/2000/svg">
<rect x="0.5" y="0.5" width="398.376" height="159" stroke="#8051B8"/>
<g clip-path="url(#clip0_162_1986)">
<g clip-path="url(#clip1_162_1986)">
<path d="M85.8849 87.775C85.5232 87.5383 85.0872 87.4235 84.6906 87.5922C84.5677 87.6602 84.4448 87.7282 84.3242 87.7938C84.0946 87.9719 83.9114 88.2086 83.7769 88.5062C83.7282 88.6585 83.6656 88.8038 83.596 88.9421C83.4638 89.1366 83.3223 89.3193 83.1693 89.4881C82.8029 89.8326 82.4063 90.1231 81.9935 90.3668C81.5042 90.6129 80.9986 90.791 80.4791 90.9058C80.0524 90.9668 79.628 90.9785 79.199 90.9316C78.7468 90.8402 78.3038 90.6902 77.8748 90.4911C77.4921 90.2778 77.1257 90.0224 76.7848 89.7177C76.6294 89.5537 76.2282 88.9514 76.1772 88.8272C76.0334 88.4054 75.8293 88.0469 75.5 87.8102C75.1661 87.5688 74.6768 87.4704 74.3057 87.6274C73.9323 87.7867 73.5752 88.0844 73.392 88.5413C73.2111 88.9889 73.1067 89.5654 73.2551 90.0575C73.3572 90.3997 73.4731 90.7488 73.6262 91.0605C73.7839 91.3815 73.9764 91.6815 74.1735 91.9651C74.5075 92.4501 74.9272 92.8485 75.3447 93.2071C75.6972 93.5117 76.0775 93.7625 76.4717 93.971C76.9958 94.2499 77.5176 94.5006 78.0742 94.6506C78.6215 94.7983 79.1897 94.892 79.7509 94.8943C80.3562 94.899 80.9685 94.7865 81.5598 94.6366C82.0236 94.517 82.4782 94.3436 82.9165 94.1187C83.429 93.8539 83.9369 93.5633 84.4054 93.186C84.8622 92.8181 85.3052 92.3869 85.6809 91.8877C85.8873 91.6112 86.0705 91.3019 86.2398 90.9902C86.3302 90.8238 86.409 90.6457 86.4693 90.4582C86.5807 90.2309 86.6386 89.9872 86.6433 89.7248C86.6873 89.4623 86.6734 89.2022 86.6062 88.9421C86.5018 88.4874 86.2189 87.9977 85.8826 87.7774L85.8849 87.775Z" fill="#F8F8F8"/>
<path d="M119.595 73.5106C119.356 72.5873 118.937 71.7507 118.343 71.0243C117.775 70.2322 117.051 69.5924 116.184 69.1191C116.175 69.1144 116.163 69.1074 116.154 69.1027C115.368 68.6832 114.53 68.402 113.691 68.2731C113.679 67.8349 113.654 67.3967 113.619 66.9608C113.498 65.5383 113.297 64.1815 113.016 62.9278C112.768 61.8193 112.436 60.6968 112.028 59.5954C111.49 58.1402 110.885 56.7646 110.228 55.5038C109.952 54.9742 109.649 54.4305 109.329 53.8916C108.867 53.062 108.255 52.366 107.501 51.8153C106.78 51.2154 105.954 50.7889 105.038 50.5498C104.449 50.3764 103.846 50.2897 103.241 50.2897C102.891 50.2897 102.538 50.3202 102.19 50.3788C101.193 50.4795 100.254 50.8076 99.396 51.3607C99.389 51.3653 99.3821 51.37 99.3751 51.3724C98.9762 51.6325 98.6075 51.9207 98.2735 52.2324C97.3343 51.5013 96.5133 50.9318 95.6854 50.4327C94.716 49.8492 93.6794 49.3172 92.6057 48.8579C91.5018 48.3845 90.0315 47.7823 88.4243 47.3253C87.877 47.1706 87.3042 47.0253 86.7221 46.8918C86.154 46.7324 85.5742 46.6504 84.9921 46.6504C84.6419 46.6504 84.2894 46.6809 83.9415 46.7394C82.993 46.8355 82.0955 47.1378 81.2699 47.644C80.769 47.9299 80.3191 48.2767 79.9202 48.6751C79.4958 48.2627 79.0204 47.9041 78.4986 47.5995C78.3711 47.5245 78.2366 47.4612 78.0997 47.4026L77.8168 47.2831L77.3576 47.0863C77.2208 47.0277 77.0817 46.9738 76.9379 46.9339C76.2908 46.7465 75.6229 46.6527 74.9597 46.6527C74.366 46.6527 73.7723 46.7277 73.1902 46.8777C70.5627 47.4659 68.014 48.3892 65.6184 49.6242C64.6119 50.1421 63.6471 50.7256 62.745 51.3607C62.3392 51.6466 61.9542 51.9301 61.5831 52.216C61.175 51.8247 60.7135 51.4872 60.2033 51.2107C60.194 51.206 60.1824 51.199 60.1731 51.1943C59.0576 50.599 57.8424 50.2827 56.662 50.2827C55.9686 50.2827 55.2868 50.3905 54.6398 50.6014C54.5285 50.6365 54.4195 50.6787 54.3128 50.7233L53.5707 51.042C53.4338 51.1005 53.2993 51.1638 53.1718 51.2388C52.0795 51.8715 51.2006 52.7456 50.5582 53.8353C49.881 54.9672 49.285 56.1155 48.7864 57.2497C48.086 58.8362 47.6129 60.0969 47.2488 61.3389C46.9288 62.4286 46.6853 63.5347 46.5229 64.6291C46.3652 65.6883 46.2006 66.942 46.1635 68.2919C45.1848 68.3973 44.2641 68.7254 43.4177 69.2691C43.4107 69.2737 43.4038 69.2784 43.3991 69.2808C41.7456 70.3587 40.6139 71.9242 40.2173 73.6864C40.1895 73.8059 40.1686 73.9278 40.1524 74.0496L40.0411 74.8862C40.0202 75.0362 40.0063 75.1885 40.0063 75.3409C39.9924 76.6696 40.3194 77.9233 40.9757 79.0692C40.9896 79.095 41.0058 79.1208 41.0197 79.1442C41.7363 80.33 42.5712 81.5251 43.6473 82.9031C44.401 83.8662 45.208 84.7708 46.0475 85.591C46.9427 86.4651 47.9422 87.304 49.1945 88.2296C49.7998 88.6772 50.4283 89.0967 51.073 89.481V102.794C51.073 106.916 53.4176 110.75 57.1722 112.365C60.8434 113.942 64.9041 113.199 67.745 110.738C68.1926 110.349 68.6054 109.923 68.9764 109.468C72.3739 110.865 76.0265 111.591 79.7324 111.591C79.8437 111.591 79.9527 111.591 80.064 111.586C80.1359 111.586 80.2055 111.591 80.2774 111.591H98.6191C103.696 111.591 108.144 107.886 108.823 102.803C109.268 99.4781 108.12 96.3285 105.947 94.1444C106.476 92.9001 106.919 91.6182 107.269 90.3083C109.05 89.4201 110.794 88.2367 112.587 86.7088C114.433 85.1317 116.142 83.1819 117.812 80.7448C118.153 80.2456 118.494 79.7184 118.823 79.1723C119.354 78.3146 119.672 77.382 119.769 76.3907C119.929 75.4276 119.874 74.4597 119.6 73.5083L119.595 73.5106ZM115.748 75.8494C115.729 76.2665 115.606 76.6579 115.379 77.0187C115.092 77.4945 114.795 77.9608 114.479 78.4178C113.185 80.3066 111.713 82.0993 109.971 83.585C108.445 84.8879 106.799 86.0432 104.978 86.8798C104.581 87.0626 104.18 87.236 103.777 87.4001C103.225 90.3387 102.16 93.0946 100.681 95.5645C103.352 96.4386 105.212 99.1359 104.818 102.206C104.424 105.273 101.722 107.502 98.6608 107.502H80.275C80.2148 107.502 80.1545 107.5 80.0942 107.497C79.9736 107.497 79.853 107.502 79.7301 107.502C75.1267 107.502 70.8224 106.218 67.1443 103.984C66.6736 106.888 64.1805 109.105 61.1727 109.105C57.8285 109.105 55.1198 106.365 55.1198 102.988V86.9947C54.6676 86.7908 54.2223 86.5705 53.7887 86.3338C53.0234 85.919 52.2882 85.448 51.5878 84.9301C50.6347 84.2248 49.7094 83.4795 48.8606 82.65C48.1301 81.9376 47.4529 81.1736 46.8244 80.3675C45.9826 79.2895 45.1848 78.1905 44.4775 77.0164C44.1969 76.5266 44.0554 75.997 44.0531 75.4299C44.0902 75.151 44.1273 74.8722 44.1644 74.5956C44.3453 73.7942 44.9297 73.1498 45.593 72.7186C45.9501 72.4889 46.3351 72.3647 46.7502 72.346C47.163 72.2522 47.5758 72.271 47.9909 72.4022C48.3945 72.4983 48.747 72.6858 49.0484 72.9646C49.387 73.1873 49.6537 73.4802 49.8485 73.8458C50.3054 74.6027 50.797 75.3385 51.3235 76.0486C51.3768 76.1165 51.4325 76.1868 51.4858 76.2548C51.2516 75.6127 51.0475 74.9612 50.8828 74.298C50.6231 73.2576 50.47 72.203 50.3402 71.1391C50.2405 70.3166 50.1964 69.4847 50.2057 68.6551C50.2196 67.5092 50.3564 66.3726 50.5257 65.2384C50.6648 64.3127 50.8689 63.3965 51.131 62.4989C51.4904 61.271 51.9682 60.0829 52.4853 58.9135C52.9376 57.8894 53.4594 56.8958 54.0345 55.935C54.3105 55.464 54.6838 55.0867 55.15 54.8078C55.3981 54.7024 55.6463 54.5969 55.8921 54.4915C56.6922 54.229 57.5665 54.4235 58.2877 54.8078C58.6495 55.0047 58.9417 55.2742 59.1597 55.6163C59.4357 55.921 59.6212 56.2748 59.7163 56.6849C59.8461 57.102 59.8647 57.5192 59.7719 57.9386C59.7534 58.3558 59.6305 58.7471 59.4032 59.108C58.8234 60.0758 58.2993 61.0765 57.8448 62.1099C57.7218 62.4146 57.6059 62.7192 57.4969 63.0285C57.1885 63.905 56.9334 64.8025 56.7409 65.7141C57.3044 64.1463 58.0001 62.6067 58.8814 61.196C59.438 60.3055 60.0711 59.4619 60.7344 58.6487C61.2585 58.0066 61.8243 57.3996 62.4296 56.8349C63.2529 56.0662 64.1457 55.3609 65.0641 54.7141C65.8271 54.1774 66.6272 53.6947 67.4574 53.2682C69.5678 52.1832 71.8243 51.3677 74.1364 50.8568C74.6883 50.7068 75.238 50.7068 75.7899 50.8568C76.0381 50.9623 76.2862 51.0677 76.532 51.1732C77.0005 51.4521 77.3715 51.8293 77.6475 52.3004C77.7519 52.5511 77.8562 52.8019 77.9606 53.0503C78.0905 53.4674 78.109 53.8845 78.0162 54.304C77.9977 54.7211 77.8748 55.1125 77.6475 55.4734C77.4527 55.8389 77.186 56.1342 76.8474 56.3545C76.5483 56.6334 76.1958 56.8208 75.7899 56.9169C74.3799 57.2286 72.9931 57.6481 71.6527 58.1894C71.4045 58.2995 71.1587 58.4143 70.9152 58.5339C69.8182 59.0752 68.7677 59.7126 67.7844 60.4461C67.6012 60.5937 67.4203 60.746 67.2441 60.9007C66.6411 61.4327 66.0729 62.0045 65.5418 62.6091C69.5446 59.7267 74.4425 58.03 79.7347 58.03C85.4907 58.03 90.7805 60.0383 94.9596 63.3965C94.9178 63.3402 94.8784 63.2816 94.8366 63.2254C94.7137 63.0731 94.5908 62.9207 94.4633 62.7731C93.7467 61.9342 92.9535 61.1608 92.1001 60.4648C91.9099 60.3219 91.7175 60.1813 91.5227 60.0477C90.4837 59.3283 89.3729 58.7143 88.2226 58.1964C86.8775 57.6504 85.4861 57.2309 84.0714 56.9169C83.2806 56.7411 82.6382 56.1412 82.2138 55.4734C81.9332 54.9836 81.7917 54.454 81.7894 53.8869C81.8265 53.608 81.8636 53.3291 81.9007 53.0526C81.9958 52.6425 82.1813 52.2887 82.4573 51.984C82.6776 51.6419 82.9675 51.3724 83.3293 51.1755C83.6864 50.9459 84.0714 50.8217 84.4865 50.8029C84.8993 50.7092 85.3121 50.7279 85.7272 50.8592C86.2676 50.9787 86.8056 51.1123 87.3367 51.2646C88.6052 51.6255 89.8204 52.1035 91.031 52.6238C91.9215 53.0057 92.7889 53.4463 93.6191 53.9478C94.6071 54.543 95.5254 55.2343 96.4229 55.9608C97.0792 56.4904 97.7007 57.0669 98.2782 57.6832C99.0087 58.4612 99.6673 59.3072 100.291 60.1719C100.746 60.8046 101.163 61.4655 101.537 62.1498C102.026 63.0426 102.422 63.9729 102.81 64.9126C102.919 65.1798 103.023 65.4493 103.12 65.7211C102.861 64.4955 102.487 63.298 102.026 62.1357C101.569 61.0952 101.04 60.0852 100.458 59.1103C100.178 58.6206 100.036 58.091 100.034 57.5238C100.071 57.245 100.108 56.9661 100.145 56.6896C100.326 55.8881 100.91 55.2437 101.574 54.8125C101.931 54.5829 102.316 54.4587 102.731 54.4399C103.144 54.3462 103.556 54.3649 103.972 54.4962C104.375 54.5946 104.728 54.7797 105.029 55.0586C105.368 55.2812 105.634 55.5741 105.829 55.9397C106.117 56.4224 106.393 56.9122 106.652 57.4114C107.26 58.5784 107.786 59.7946 108.243 61.0296C108.582 61.9435 108.86 62.8786 109.074 63.83C109.329 64.9736 109.493 66.1429 109.591 67.31C109.663 68.1653 109.677 69.0253 109.632 69.8807C109.574 70.9633 109.435 72.0484 109.238 73.1146C109.097 73.8809 108.909 74.6378 108.675 75.3807C108.582 75.6736 108.482 75.9619 108.378 76.2501C108.427 76.1892 108.475 76.1282 108.524 76.0673C109.055 75.3526 109.551 74.6097 110.013 73.8458C110.289 73.3747 110.662 72.9974 111.128 72.7186C111.376 72.6131 111.625 72.5077 111.87 72.4022C112.67 72.1397 113.545 72.3342 114.266 72.7186C114.628 72.9154 114.92 73.1849 115.138 73.527C115.414 73.8293 115.6 74.1855 115.695 74.5956C115.824 75.0128 115.843 75.4299 115.75 75.8494H115.748Z" fill="#F8F8F8"/>
<path d="M91.3928 72.4749H91.2304C89.3092 72.4749 87.7518 74.0486 87.7518 75.99V78.0311C87.7518 79.9725 89.3092 81.5462 91.2304 81.5462H91.3928C93.314 81.5462 94.8714 79.9725 94.8714 78.0311V75.99C94.8714 74.0486 93.314 72.4749 91.3928 72.4749Z" fill="#F8F8F8"/>
<path d="M68.7584 72.4749H68.5961C66.6749 72.4749 65.1174 74.0486 65.1174 75.99V78.0311C65.1174 79.9725 66.6749 81.5462 68.5961 81.5462H68.7584C70.6796 81.5462 72.2371 79.9725 72.2371 78.0311V75.99C72.2371 74.0486 70.6796 72.4749 68.7584 72.4749Z" fill="#F8F8F8"/>
</g>
<path d="M182.12 60.0034V98.8516H175.748V72.2448L163.898 98.8516H159.482L147.576 72.2448V98.8516H141.204V60.0034H148.079L161.718 90.4671L175.301 60.0034H182.12ZM218.723 82.6974C218.723 83.8526 218.649 84.896 218.5 85.8277H194.967C195.154 88.2871 196.067 90.2621 197.706 91.7527C199.346 93.2433 201.358 93.9886 203.743 93.9886C207.171 93.9886 209.594 92.5539 211.01 89.6845H217.885C216.953 92.5166 215.258 94.8456 212.798 96.6716C210.376 98.4603 207.358 99.3546 203.743 99.3546C200.799 99.3546 198.153 98.7025 195.806 97.3983C193.495 96.0567 191.669 94.1935 190.328 91.8086C189.024 89.3864 188.372 86.5916 188.372 83.4241C188.372 80.2566 189.005 77.4804 190.272 75.0955C191.576 72.6733 193.384 70.8101 195.694 69.5058C198.042 68.2016 200.725 67.5495 203.743 67.5495C206.65 67.5495 209.24 68.183 211.513 69.4499C213.786 70.7169 215.556 72.5056 216.823 74.816C218.09 77.0891 218.723 79.7163 218.723 82.6974ZM212.072 80.6852C212.034 78.3375 211.196 76.4557 209.556 75.0396C207.917 73.6236 205.886 72.9155 203.464 72.9155C201.265 72.9155 199.383 73.6236 197.818 75.0396C196.253 76.4184 195.321 78.3002 195.023 80.6852H212.072ZM240.925 67.5495C243.272 67.5495 245.359 68.0525 247.185 69.0587C249.048 70.0648 250.502 71.5554 251.545 73.5304C252.626 75.5054 253.166 77.8903 253.166 80.6852V98.8516H246.85V81.6354C246.85 78.8778 246.16 76.7724 244.782 75.3191C243.403 73.8285 241.521 73.0832 239.136 73.0832C236.751 73.0832 234.851 73.8285 233.435 75.3191C232.056 76.7724 231.367 78.8778 231.367 81.6354V98.8516H224.994V57.4881H231.367V71.6299C232.447 70.3257 233.807 69.3195 235.447 68.6115C237.124 67.9035 238.95 67.5495 240.925 67.5495ZM274.654 99.3546C271.747 99.3546 269.12 98.7025 266.772 97.3983C264.425 96.0567 262.58 94.1935 261.238 91.8086C259.897 89.3864 259.226 86.5916 259.226 83.4241C259.226 80.2939 259.916 77.5177 261.294 75.0955C262.673 72.6733 264.555 70.8101 266.94 69.5058C269.325 68.2016 271.989 67.5495 274.933 67.5495C277.877 67.5495 280.541 68.2016 282.926 69.5058C285.311 70.8101 287.193 72.6733 288.572 75.0955C289.951 77.5177 290.64 80.2939 290.64 83.4241C290.64 86.5543 289.932 89.3305 288.516 91.7527C287.1 94.1749 285.162 96.0567 282.703 97.3983C280.281 98.7025 277.598 99.3546 274.654 99.3546ZM274.654 93.8209C276.293 93.8209 277.821 93.4296 279.237 92.647C280.69 91.8645 281.864 90.6907 282.759 89.1256C283.653 87.5604 284.1 85.66 284.1 83.4241C284.1 81.1882 283.672 79.3064 282.815 77.7785C281.957 76.2134 280.821 75.0396 279.405 74.2571C277.989 73.4745 276.461 73.0832 274.821 73.0832C273.182 73.0832 271.654 73.4745 270.238 74.2571C268.859 75.0396 267.76 76.2134 266.94 77.7785C266.12 79.3064 265.71 81.1882 265.71 83.4241C265.71 86.7406 266.549 89.3119 268.226 91.1378C269.94 92.9265 272.082 93.8209 274.654 93.8209ZM299.511 99.2428C298.355 99.2428 297.387 98.8516 296.604 98.069C295.821 97.2865 295.43 96.3176 295.43 95.1624C295.43 94.0072 295.821 93.0383 296.604 92.2558C297.387 91.4732 298.355 91.0819 299.511 91.0819C300.629 91.0819 301.579 91.4732 302.361 92.2558C303.144 93.0383 303.535 94.0072 303.535 95.1624C303.535 96.3176 303.144 97.2865 302.361 98.069C301.579 98.8516 300.629 99.2428 299.511 99.2428ZM308.298 83.3123C308.298 80.2194 308.932 77.4804 310.199 75.0955C311.503 72.7106 313.254 70.866 315.453 69.5617C317.689 68.2202 320.148 67.5495 322.831 67.5495C325.253 67.5495 327.359 68.0339 329.148 69.0028C330.974 69.9344 332.427 71.1082 333.508 72.5243V68.0525H339.936V98.8516H333.508V94.268C332.427 95.7214 330.955 96.9324 329.092 97.9013C327.228 98.8702 325.104 99.3546 322.719 99.3546C320.074 99.3546 317.652 98.6839 315.453 97.3424C313.254 95.9636 311.503 94.0631 310.199 91.6409C308.932 89.1814 308.298 86.4052 308.298 83.3123ZM333.508 83.4241C333.508 81.3 333.06 79.4554 332.166 77.8903C331.309 76.3252 330.172 75.1328 328.756 74.313C327.34 73.4931 325.812 73.0832 324.173 73.0832C322.533 73.0832 321.005 73.4931 319.589 74.313C318.173 75.0955 317.018 76.2693 316.124 77.8344C315.267 79.3623 314.838 81.1882 314.838 83.3123C314.838 85.4364 315.267 87.2996 316.124 88.902C317.018 90.5043 318.173 91.7341 319.589 92.5911C321.043 93.411 322.57 93.8209 324.173 93.8209C325.812 93.8209 327.34 93.411 328.756 92.5911C330.172 91.7713 331.309 90.5789 332.166 89.0138C333.06 87.4114 333.508 85.5482 333.508 83.4241ZM351.547 63.9721C350.392 63.9721 349.423 63.5808 348.641 62.7982C347.858 62.0157 347.467 61.0468 347.467 59.8916C347.467 58.7364 347.858 57.7676 348.641 56.985C349.423 56.2024 350.392 55.8112 351.547 55.8112C352.665 55.8112 353.615 56.2024 354.398 56.985C355.181 57.7676 355.572 58.7364 355.572 59.8916C355.572 61.0468 355.181 62.0157 354.398 62.7982C353.615 63.5808 352.665 63.9721 351.547 63.9721ZM354.677 68.0525V98.8516H348.305V68.0525H354.677Z" fill="white"/>
</g>
<rect x="40.5" y="40.5" width="318.376" height="79" stroke="#8051B8" stroke-dasharray="2 2"/>
<rect width="40" height="40" fill="#DBBDE3"/>
<rect width="40" height="40" transform="translate(359)" fill="#DBBDE3"/>
<rect width="40" height="40" transform="translate(359 120)" fill="#DBBDE3"/>
<rect width="40" height="40" transform="translate(0 120)" fill="#DBBDE3"/>
<defs>
<clipPath id="clip0_162_1986">
<rect x="40" y="40" width="319.376" height="80" fill="white"/>
</clipPath>
<clipPath id="clip1_162_1986">
<rect width="79.8523" height="79.8523" fill="white" transform="translate(40 40)"/>
</clipPath>
</defs>
</svg>

