<?xml version="1.0" encoding="UTF-8"?> <svg xmlns="http://www.w3.org/2000/svg" id="Layer_1" viewBox="0 0 175.24 41.66"><defs><style> .cls-1 { fill: #0075e4; } .cls-2 { fill: #1f1534; } .cls-3 { fill: #0d09b5; } .cls-4 { fill: #0bd7a1; } </style></defs><g><path class="cls-4" d="M10.77,36.51c-.49,0-.98-.03-1.46-.1-1.26-.17-2.46-.56-3.58-1.15C1.76,33.15-.51,28.72.1,24.24c.17-1.26.54-3.17,1.79-5.25,1.46-2.44,3.78-4.53,6.89-6.22,3.6-1.95,8.46-3.16,12.68-3.16,2.67,0,4.72.5,5.61,1.36.54.48.86,1.17.86,1.9,0,.43-.1.85-.3,1.22-.27.61-.74,1.19-1.4,1.93-.13.14-.25.28-.39.43-.56.62-1.19,1.31-1.78,2.12-1.88,2.58-2.24,5.47-2.53,7.79-.03.27-.07.54-.1.79-.72,5.34-5.3,9.36-10.65,9.36Z"></path><path class="cls-3" d="M10.59,41.66c-2.68,0-4.72-.5-5.61-1.36-.54-.48-.86-1.17-.86-1.9,0-.43.1-.85.3-1.22.28-.61.74-1.19,1.4-1.93.13-.14.25-.28.39-.43.56-.62,1.19-1.31,1.78-2.12,1.88-2.58,2.24-5.47,2.53-7.79.03-.27.07-.54.1-.79.72-5.34,5.3-9.36,10.65-9.36.49,0,.98.03,1.46.1,1.26.17,2.46.56,3.58,1.15,3.98,2.11,6.24,6.54,5.64,11.02-.17,1.26-.54,3.17-1.79,5.25-1.46,2.44-3.78,4.53-6.89,6.22-3.6,1.95-8.46,3.16-12.67,3.16h0Z"></path><path class="cls-1" d="M25.83,16.45c.13-.14.26-.29.39-.43.01-.01.03-.03.04-.04-1.1-.57-2.28-.95-3.52-1.12-.48-.07-.98-.1-1.46-.1-5.35,0-9.93,4.02-10.65,9.36-.03.25-.07.51-.1.79-.29,2.32-.65,5.22-2.53,7.79-.59.8-1.22,1.5-1.78,2.12-.13.14-.26.29-.39.43-.01.01-.03.03-.04.04,1.1.57,2.28.95,3.52,1.12.48.07.98.1,1.46.1,5.35,0,9.93-4.02,10.65-9.36.03-.25.07-.51.1-.79.29-2.32.65-5.22,2.53-7.79.59-.8,1.22-1.5,1.78-2.12Z"></path></g><g id="Logo-2"><g><path class="cls-2" d="M76.72,40.72l-7.05-27.06,5.06-1.32,5.97,22.92,6.81-15.36c.65-1.77.24-3.12-.05-4.12-.24-.84-.46-1.25-.89-2.06l5.06-1.32c.5.93.89,1.8,1.22,3.19.38,1.53.62,3.31-.02,5.23l-8.87,19.94-7.24-.02h0Z"></path><path class="cls-2" d="M97.33,30.8l-.02-7.62c-.02-7.14,3.6-10.76,11.65-10.76s11.82,3.67,11.79,10.76l.02,7.62c.05,6.62-3.57,10.81-11.65,10.81s-11.79-4.51-11.79-10.81h0ZM115.82,23.18c-.02-4.6-1.94-6.5-6.57-6.52-4.72,0-6.54,1.89-6.54,6.52v7.62c0,4.1,1.82,6.54,6.62,6.54s6.5-2.16,6.5-6.54v-7.62h0Z"></path><path class="cls-2" d="M127.63,13.78l5.25-1.37-.02,28.31h-5.15l-.07-26.94Z"></path><path class="cls-2" d="M140.43,1.37l5.23-1.37v40.7h-5.23V1.37h0Z"></path><path class="cls-2" d="M175.24,40.72h-4.34l-.48-3.5c-2.9,2.85-6.88,4.43-10.81,4.43-4.77,0-7.02-2.78-7.65-6.11-.14-.72-.14-1.49-.17-2.25v-10.24c0-7.02,2.13-10.64,11.94-10.64,3.81,0,8.25.89,11.51,1.97v26.34h0ZM170.01,17.33c-1.73-.41-3.96-.72-6.11-.72-4.77,0-6.88,1.37-6.88,7.07v9.23c0,.72.02,1.49.12,2.01.26,1.37,1.1,2.4,3,2.4,3.88,0,6.88-2.28,9.88-5.3v-14.69h0Z"></path><circle class="cls-2" cx="130.25" cy="6.59" r="2.85"></circle><path class="cls-2" d="M64.62,32.57c-3.55,2.18-8.32,4.77-11.55,4.77s-4.96-.81-5.32-2.64c-.05-.24-.12-.65-.12-1.29v-2.33c2.56-.77,5.08-1.05,8.65-2.23,8.32-2.71,10.28-5.11,9.35-9.95-.84-4.24-5.01-6.47-10.24-6.47-8.89,0-13.09,3.64-13.09,10.88l.02,9.04c0,1.01.12,1.94.26,2.64.77,3.93,3.81,6.64,10.14,6.64,5.13,0,9.9-2.73,13.14-4.94l-1.25-4.12h0ZM47.6,22.68c0-4.65,3.28-5.99,8.17-5.99,2.83,0,4.6.89,4.99,2.76.46,2.35-2.04,4.17-7,5.58-2.88.81-4.51,1.13-6.16,1.58v-3.93h0Z"></path></g></g></svg> 