<?xml version="1.0" encoding="UTF-8"?> <svg xmlns="http://www.w3.org/2000/svg" id="Layer_1" viewBox="0 0 50 50"><defs><style> .cls-1 { fill: #0075e4; } .cls-2 { fill: #0d09b5; } .cls-3 { fill: #0bd7a1; } </style></defs><path class="cls-3" d="M16.81,41.97c-.76,0-1.52-.05-2.28-.16-1.96-.27-3.84-.87-5.58-1.79C2.74,36.73-.79,29.82.15,22.82c.26-1.96.84-4.94,2.79-8.2,2.28-3.81,5.9-7.07,10.75-9.7C19.32,1.89,26.89,0,33.47,0c4.17,0,7.36.77,8.75,2.12.85.75,1.34,1.83,1.34,2.96,0,.67-.16,1.33-.47,1.91-.43.96-1.16,1.86-2.19,3.02-.2.22-.4.44-.6.67-.87.96-1.86,2.05-2.78,3.31-2.93,4.02-3.5,8.53-3.95,12.16-.05.42-.1.83-.16,1.23-1.12,8.33-8.27,14.6-16.61,14.6Z"></path><path class="cls-2" d="M16.53,50c-4.17,0-7.36-.77-8.75-2.12-.85-.75-1.34-1.83-1.34-2.96,0-.67.16-1.33.47-1.91.43-.96,1.16-1.86,2.19-3.02.2-.22.4-.44.6-.67.87-.96,1.86-2.05,2.78-3.31,2.93-4.02,3.5-8.53,3.95-12.16.05-.43.1-.84.16-1.23,1.12-8.33,8.27-14.6,16.61-14.6.76,0,1.52.05,2.28.16,1.96.27,3.84.87,5.58,1.79,6.21,3.29,9.74,10.2,8.8,17.2-.26,1.96-.84,4.94-2.79,8.2-2.28,3.81-5.9,7.07-10.75,9.7-5.62,3.04-13.2,4.93-19.77,4.93h0Z"></path><path class="cls-1" d="M40.3,10.67c.21-.23.41-.45.6-.67.02-.02.04-.05.06-.07-1.71-.9-3.56-1.49-5.49-1.75-.76-.1-1.52-.16-2.28-.16-8.35,0-15.49,6.28-16.61,14.6-.05.39-.1.8-.16,1.23-.45,3.63-1.01,8.14-3.95,12.16-.92,1.26-1.91,2.35-2.78,3.31-.21.23-.41.45-.6.67-.02.02-.04.05-.06.07,1.71.9,3.56,1.49,5.49,1.75.76.1,1.52.16,2.28.16,8.35,0,15.49-6.28,16.61-14.6.05-.39.1-.8.16-1.23.45-3.63,1.01-8.14,3.95-12.16.92-1.26,1.91-2.34,2.78-3.31Z"></path></svg> 