<svg width="160" height="160" viewBox="0 0 160 160" fill="none" xmlns="http://www.w3.org/2000/svg">
<g clip-path="url(#clip0_159_1552)">
<g clip-path="url(#clip1_159_1552)">
<g clip-path="url(#clip2_159_1552)">
<path d="M88.3593 91.0091C87.8519 90.6772 87.2403 90.5161 86.6841 90.7528C86.5117 90.8481 86.3393 90.9434 86.1702 91.0354C85.8482 91.2852 85.5912 91.6172 85.4025 92.0346C85.3342 92.2483 85.2464 92.452 85.1488 92.646C84.9634 92.9188 84.765 93.1752 84.5503 93.4118C84.0364 93.895 83.4802 94.3026 82.9012 94.6444C82.2149 94.9895 81.5058 95.2393 80.7772 95.4004C80.1786 95.4858 79.5834 95.5023 78.9816 95.4365C78.3474 95.3083 77.7261 95.098 77.1243 94.8186C76.5876 94.5195 76.0737 94.1612 75.5955 93.7339C75.3776 93.5038 74.8149 92.6591 74.7433 92.4849C74.5417 91.8933 74.2554 91.3904 73.7935 91.0584C73.3251 90.7199 72.6388 90.5818 72.1184 90.802C71.5947 91.0256 71.0938 91.443 70.8368 92.0839C70.5831 92.7117 70.4367 93.5203 70.6449 94.2105C70.788 94.6904 70.9506 95.1801 71.1653 95.6173C71.3865 96.0676 71.6565 96.4883 71.933 96.886C72.4014 97.5664 72.9901 98.1252 73.5756 98.628C74.07 99.0553 74.6035 99.407 75.1564 99.6996C75.8915 100.091 76.6234 100.442 77.4041 100.653C78.1717 100.86 78.9686 100.991 79.7558 100.995C80.6048 101.001 81.4635 100.843 82.2929 100.633C82.9435 100.465 83.581 100.222 84.1958 99.9066C84.9146 99.5352 85.627 99.1276 86.284 98.5985C86.9248 98.0824 87.5461 97.4776 88.0731 96.7775C88.3625 96.3897 88.6195 95.9558 88.857 95.5187C88.9838 95.2853 89.0944 95.0355 89.179 94.7726C89.3351 94.4537 89.4164 94.1119 89.4229 93.7438C89.4847 93.3757 89.4652 93.0108 89.3709 92.646C89.2245 92.0083 88.8277 91.3214 88.356 91.0124L88.3593 91.0091Z" fill="#F8F8F8"/>
<path d="M135.641 71.002C135.306 69.707 134.717 68.5336 133.885 67.5147C133.088 66.4037 132.073 65.5064 130.856 64.8425C130.843 64.8359 130.827 64.826 130.814 64.8195C129.711 64.2311 128.537 63.8367 127.36 63.6559C127.343 63.0413 127.308 62.4266 127.259 61.8153C127.09 59.8202 126.807 57.9171 126.413 56.1586C126.065 54.6039 125.6 53.0295 125.027 51.4847C124.273 49.4436 123.424 47.5142 122.503 45.7459C122.116 45.003 121.69 44.2405 121.241 43.4845C120.594 42.321 119.735 41.3448 118.678 40.5724C117.666 39.7309 116.508 39.1327 115.224 38.7974C114.397 38.5542 113.552 38.4326 112.703 38.4326C112.212 38.4326 111.717 38.4753 111.229 38.5575C109.831 38.6988 108.513 39.159 107.31 39.9347C107.3 39.9413 107.29 39.9478 107.28 39.9511C106.721 40.316 106.204 40.7203 105.735 41.1574C104.418 40.1319 103.267 39.3332 102.105 38.6331C100.746 37.8147 99.2917 37.0686 97.7857 36.4243C96.2374 35.7604 94.1752 34.9157 91.921 34.2747C91.1534 34.0578 90.35 33.854 89.5335 33.6667C88.7366 33.4432 87.9234 33.3281 87.107 33.3281C86.6158 33.3281 86.1214 33.3709 85.6335 33.453C84.3031 33.5878 83.0443 34.0118 81.8863 34.7218C81.1837 35.1227 80.5527 35.6092 79.9932 36.168C79.398 35.5895 78.7312 35.0866 77.9993 34.6593C77.8204 34.5541 77.6318 34.4654 77.4398 34.3832L77.043 34.2156L76.399 33.9395C76.2071 33.8573 76.0119 33.7817 75.8102 33.7258C74.9027 33.4629 73.9659 33.3314 73.0356 33.3314C72.2029 33.3314 71.3702 33.4366 70.5538 33.6469C66.8684 34.472 63.2937 35.767 59.9336 37.4991C58.5219 38.2255 57.1688 39.044 55.9035 39.9347C55.3342 40.3357 54.7943 40.7334 54.2738 41.1344C53.7014 40.5855 53.0541 40.1122 52.3385 39.7243C52.3255 39.7178 52.3092 39.7079 52.2962 39.7013C50.7316 38.8665 49.0272 38.4227 47.3715 38.4227C46.399 38.4227 45.4427 38.5739 44.5351 38.8698C44.379 38.9191 44.2261 38.9782 44.0765 39.0407L43.0356 39.4877C42.8437 39.5699 42.6551 39.6586 42.4762 39.7638C40.9441 40.6512 39.7113 41.8772 38.8103 43.4056C37.8605 44.9932 37.0246 46.6037 36.3252 48.1946C35.3429 50.4198 34.6793 52.1881 34.1687 53.9301C33.7198 55.4585 33.3783 57.0099 33.1506 58.5449C32.9294 60.0305 32.6984 61.789 32.6464 63.6822C31.2737 63.8301 29.9824 64.2903 28.7951 65.0528C28.7854 65.0594 28.7756 65.066 28.7691 65.0693C26.4499 66.5812 24.8626 68.7768 24.3064 71.2486C24.2673 71.4162 24.2381 71.5871 24.2153 71.758L24.0592 72.9314C24.0299 73.1418 24.0104 73.3554 24.0104 73.5691C23.9908 75.4327 24.4495 77.1912 25.37 78.7985C25.3895 78.8346 25.4123 78.8708 25.4318 78.9036C26.4369 80.5668 27.6079 82.2431 29.1172 84.1758C30.1743 85.5266 31.3063 86.7954 32.4837 87.9458C33.7393 89.1718 35.1412 90.3485 36.8977 91.6468C37.7467 92.2746 38.6282 92.8629 39.5324 93.402V112.075C39.5324 117.856 42.8209 123.233 48.0871 125.498C53.2362 127.71 58.9318 126.668 62.9164 123.217C63.5441 122.671 64.1231 122.073 64.6436 121.436C69.4088 123.394 74.5319 124.413 79.7298 124.413C79.8859 124.413 80.0388 124.413 80.1949 124.407C80.2957 124.407 80.3933 124.413 80.4942 124.413H106.22C113.34 124.413 119.579 119.217 120.532 112.088C121.157 107.424 119.547 103.006 116.499 99.9428C117.24 98.1975 117.862 96.3996 118.353 94.5622C120.851 93.3165 123.297 91.6566 125.811 89.5136C128.4 87.3016 130.798 84.5669 133.14 81.1486C133.618 80.4485 134.096 79.7089 134.558 78.9431C135.303 77.7401 135.748 76.4319 135.885 75.0416C136.109 73.6907 136.031 72.3332 135.648 70.9988L135.641 71.002ZM130.245 74.2823C130.219 74.8674 130.046 75.4163 129.728 75.9225C129.324 76.5897 128.908 77.2438 128.466 77.8847C126.651 80.5339 124.585 83.0484 122.142 85.1322C120.002 86.9597 117.692 88.5801 115.139 89.7535C114.583 90.0099 114.02 90.2531 113.454 90.4832C112.68 94.6049 111.187 98.4703 109.112 101.935C112.859 103.161 115.468 106.944 114.915 111.25C114.362 115.552 110.572 118.678 106.279 118.678H80.4909C80.4063 118.678 80.3218 118.675 80.2372 118.671C80.0681 118.671 79.8989 118.678 79.7265 118.678C73.2698 118.678 67.2327 116.877 62.0739 113.744C61.4136 117.817 57.9169 120.926 53.6981 120.926C49.0077 120.926 45.2085 117.084 45.2085 112.347V89.9146C44.5742 89.6286 43.9496 89.3197 43.3414 88.9877C42.268 88.4059 41.2369 87.7453 40.2545 87.0189C38.9177 86.0295 37.6198 84.9843 36.4293 83.8208C35.4047 82.8216 34.4549 81.7501 33.5734 80.6194C32.3927 79.1074 31.2737 77.5659 30.2816 75.9192C29.8881 75.2322 29.6896 74.4894 29.6864 73.694C29.7384 73.3028 29.7905 72.9117 29.8425 72.5239C30.0962 71.3998 30.9159 70.4959 31.8462 69.8911C32.3471 69.569 32.8871 69.3948 33.4693 69.3685C34.0483 69.237 34.6273 69.2633 35.2095 69.4474C35.7755 69.5821 36.2699 69.8451 36.6928 70.2362C37.1677 70.5485 37.5418 70.9593 37.815 71.4721C38.4558 72.5337 39.1454 73.5658 39.8837 74.5617C39.9585 74.657 40.0366 74.7556 40.1114 74.8509C39.7829 73.9504 39.4967 73.0366 39.2657 72.1064C38.9014 70.6471 38.6867 69.168 38.5046 67.6757C38.3647 66.5221 38.3029 65.3552 38.3159 64.1917C38.3354 62.5844 38.5273 60.9903 38.7648 59.3994C38.9599 58.1011 39.2462 56.816 39.6138 55.5571C40.1179 53.8348 40.788 52.1684 41.5133 50.5282C42.1476 49.0919 42.8795 47.6982 43.6862 46.3506C44.0733 45.69 44.5969 45.1608 45.2507 44.7697C45.5988 44.6218 45.9468 44.4738 46.2916 44.3259C47.4138 43.9578 48.6401 44.2306 49.6517 44.7697C50.1591 45.0458 50.569 45.4237 50.8747 45.9036C51.2618 46.3309 51.522 46.8272 51.6554 47.4024C51.8375 47.9875 51.8636 48.5726 51.7335 49.1609C51.7074 49.746 51.535 50.2949 51.2163 50.801C50.4031 52.1585 49.668 53.562 49.0304 55.0115C48.858 55.4388 48.6954 55.8661 48.5425 56.2999C48.1099 57.5292 47.7521 58.7881 47.4821 60.0667C48.2725 57.8678 49.2484 55.7083 50.4844 53.7296C51.2651 52.4806 52.1531 51.2974 53.0833 50.1568C53.8185 49.2562 54.6121 48.4049 55.4611 47.6128C56.6158 46.5347 57.8681 45.5454 59.1562 44.6382C60.2264 43.8855 61.3485 43.2084 62.513 42.6102C65.473 41.0884 68.6379 39.9446 71.8809 39.228C72.6551 39.0177 73.426 39.0177 74.2001 39.228C74.5482 39.3759 74.8962 39.5238 75.241 39.6718C75.898 40.0629 76.4185 40.5921 76.8056 41.2527C76.9519 41.6044 77.0983 41.9561 77.2447 42.3045C77.4268 42.8896 77.4529 43.4746 77.3227 44.063C77.2967 44.648 77.1243 45.197 76.8056 45.7031C76.5323 46.2159 76.1583 46.63 75.6834 46.939C75.2638 47.3301 74.7694 47.5931 74.2001 47.7278C72.2225 48.165 70.2773 48.7533 68.3972 49.5126C68.0492 49.6671 67.7044 49.8281 67.3629 49.9958C65.8243 50.755 64.3508 51.649 62.9717 52.6778C62.7147 52.8849 62.461 53.0986 62.2138 53.3155C61.3681 54.0616 60.5711 54.8636 59.8263 55.7116C65.4405 51.6688 72.3103 49.2891 79.733 49.2891C87.8063 49.2891 95.2258 52.1059 101.087 56.816C101.029 56.7371 100.973 56.6549 100.915 56.576C100.742 56.3624 100.57 56.1488 100.391 55.9417C99.3861 54.765 98.2736 53.6803 97.0766 52.7041C96.8099 52.5036 96.5399 52.3064 96.2667 52.1191C94.8095 51.11 93.2514 50.2488 91.638 49.5225C89.7515 48.7566 87.7998 48.1683 85.8156 47.7278C84.7065 47.4813 83.8055 46.6399 83.2102 45.7031C82.8166 45.0162 82.6182 44.2733 82.615 43.4779C82.667 43.0868 82.719 42.6957 82.7711 42.3078C82.9044 41.7326 83.1647 41.2363 83.5517 40.809C83.8608 40.3291 84.2673 39.9511 84.7748 39.675C85.2757 39.3529 85.8157 39.1787 86.3979 39.1524C86.9769 39.021 87.5559 39.0473 88.1381 39.2313C88.896 39.3989 89.6506 39.5863 90.3955 39.7999C92.1748 40.3061 93.8792 40.9766 95.5771 41.7063C96.8262 42.2421 98.0427 42.86 99.2072 43.5634C100.593 44.3982 101.881 45.3679 103.14 46.3868C104.06 47.1296 104.932 47.9382 105.742 48.8026C106.767 49.8939 107.69 51.0804 108.565 52.2933C109.203 53.1807 109.788 54.1076 110.312 55.0674C110.998 56.3197 111.555 57.6245 112.098 58.9426C112.251 59.3173 112.397 59.6953 112.534 60.0765C112.169 58.3575 111.646 56.6779 110.998 55.0477C110.358 53.5883 109.616 52.1717 108.799 50.8043C108.406 50.1174 108.207 49.3745 108.204 48.5791C108.256 48.188 108.308 47.7969 108.36 47.409C108.614 46.2849 109.434 45.381 110.364 44.7762C110.865 44.4541 111.405 44.2799 111.987 44.2536C112.566 44.1222 113.145 44.1484 113.727 44.3325C114.293 44.4706 114.788 44.7302 115.211 45.1214C115.686 45.4336 116.06 45.8445 116.333 46.3572C116.736 47.0343 117.123 47.7213 117.488 48.4214C118.34 50.0582 119.078 51.7641 119.719 53.4963C120.194 54.7781 120.584 56.0896 120.883 57.424C121.241 59.028 121.472 60.6682 121.609 62.305C121.71 63.5047 121.729 64.711 121.667 65.9107C121.586 67.4292 121.391 68.951 121.114 70.4466C120.916 71.5214 120.652 72.583 120.324 73.625C120.194 74.0358 120.054 74.4401 119.908 74.8444C119.976 74.7589 120.044 74.6735 120.113 74.588C120.857 73.5855 121.553 72.5436 122.201 71.4721C122.588 70.8114 123.112 70.2822 123.765 69.8911C124.113 69.7432 124.461 69.5953 124.806 69.4474C125.928 69.0792 127.155 69.352 128.166 69.8911C128.674 70.1672 129.084 70.5452 129.389 71.0251C129.776 71.4491 130.037 71.9487 130.17 72.5239C130.352 73.1089 130.378 73.694 130.248 74.2823H130.245Z" fill="#F8F8F8"/>
<path d="M96.0845 69.5493H95.8568C93.1622 69.5493 90.9777 71.7566 90.9777 74.4795V77.3424C90.9777 80.0653 93.1622 82.2727 95.8568 82.2727H96.0845C98.7792 82.2727 100.964 80.0653 100.964 77.3424V74.4795C100.964 71.7566 98.7792 69.5493 96.0845 69.5493Z" fill="#F8F8F8"/>
<path d="M64.3378 69.5493H64.1101C61.4155 69.5493 59.231 71.7566 59.231 74.4795V77.3424C59.231 80.0653 61.4155 82.2727 64.1101 82.2727H64.3378C67.0325 82.2727 69.2169 80.0653 69.2169 77.3424V74.4795C69.2169 71.7566 67.0325 69.5493 64.3378 69.5493Z" fill="#F8F8F8"/>
</g>
</g>
<rect x="24.5" y="24.5" width="111" height="111" stroke="#8051B8" stroke-dasharray="2 2"/>
<rect width="24" height="24" fill="#DBBDE3"/>
<rect width="24" height="24" transform="translate(136)" fill="#DBBDE3"/>
<rect width="24" height="24" transform="translate(136 136)" fill="#DBBDE3"/>
<rect width="24" height="24" transform="translate(0 136)" fill="#DBBDE3"/>
</g>
<rect x="0.5" y="0.5" width="159" height="159" stroke="#8051B8"/>
<defs>
<clipPath id="clip0_159_1552">
<rect width="160" height="160" fill="white"/>
</clipPath>
<clipPath id="clip1_159_1552">
<rect x="24" y="24" width="112" height="112" fill="white"/>
</clipPath>
<clipPath id="clip2_159_1552">
<rect width="112" height="112" fill="white" transform="translate(24 24)"/>
</clipPath>
</defs>
</svg>
